G04 #@! TF.GenerationSoftware,KiCad,Pcbnew,7.0.5-0*
G04 #@! TF.CreationDate,2024-11-09T14:15:42+01:00*
G04 #@! TF.ProjectId,p44mini_lx,7034346d-696e-4695-9f6c-782e6b696361,rev?*
G04 #@! TF.SameCoordinates,Original*
G04 #@! TF.FileFunction,Soldermask,Bot*
G04 #@! TF.FilePolarity,Negative*
%FSLAX46Y46*%
G04 Gerber Fmt 4.6, Leading zero omitted, Abs format (unit mm)*
G04 Created by KiCad (PCBNEW 7.0.5-0) date 2024-11-09 14:15:42*
%MOMM*%
%LPD*%
G01*
G04 APERTURE LIST*
G04 Aperture macros list*
%AMRoundRect*
0 Rectangle with rounded corners*
0 $1 Rounding radius*
0 $2 $3 $4 $5 $6 $7 $8 $9 X,Y pos of 4 corners*
0 Add a 4 corners polygon primitive as box body*
4,1,4,$2,$3,$4,$5,$6,$7,$8,$9,$2,$3,0*
0 Add four circle primitives for the rounded corners*
1,1,$1+$1,$2,$3*
1,1,$1+$1,$4,$5*
1,1,$1+$1,$6,$7*
1,1,$1+$1,$8,$9*
0 Add four rect primitives between the rounded corners*
20,1,$1+$1,$2,$3,$4,$5,0*
20,1,$1+$1,$4,$5,$6,$7,0*
20,1,$1+$1,$6,$7,$8,$9,0*
20,1,$1+$1,$8,$9,$2,$3,0*%
G04 Aperture macros list end*
%ADD10R,1.600000X1.600000*%
%ADD11C,1.600000*%
%ADD12R,1.700000X1.700000*%
%ADD13O,1.700000X1.700000*%
%ADD14C,5.600000*%
%ADD15R,1.305560X1.305560*%
%ADD16C,1.305560*%
%ADD17C,3.200000*%
%ADD18C,1.524000*%
%ADD19C,2.032000*%
%ADD20C,3.048000*%
%ADD21C,2.000000*%
%ADD22R,2.540000X2.540000*%
%ADD23C,2.540000*%
%ADD24O,1.800000X2.540000*%
%ADD25RoundRect,0.250000X1.550000X-0.650000X1.550000X0.650000X-1.550000X0.650000X-1.550000X-0.650000X0*%
%ADD26O,3.600000X1.800000*%
%ADD27O,1.200000X1.900000*%
%ADD28C,1.450000*%
%ADD29R,2.000000X0.950000*%
%ADD30R,0.950000X2.000000*%
G04 APERTURE END LIST*
G36*
X78349600Y-75708800D02*
G01*
X80349600Y-75708800D01*
X80349600Y-77806165D01*
X78349600Y-77806165D01*
X78349600Y-75708800D01*
G37*
G36*
X84565200Y-68088000D02*
G01*
X82467835Y-68088000D01*
X82467835Y-70088000D01*
X84565200Y-70088000D01*
X84565200Y-68088000D01*
G37*
G36*
X82889600Y-77808800D02*
G01*
X80889600Y-77808800D01*
X80889600Y-75711435D01*
X82889600Y-75711435D01*
X82889600Y-77808800D01*
G37*
G36*
X139074400Y-58962000D02*
G01*
X137074400Y-58962000D01*
X137074400Y-56864635D01*
X139074400Y-56864635D01*
X139074400Y-58962000D01*
G37*
G36*
X72170000Y-71034400D02*
G01*
X70072635Y-71034400D01*
X70072635Y-73034400D01*
X72170000Y-73034400D01*
X72170000Y-71034400D01*
G37*
G36*
X141716000Y-58962000D02*
G01*
X139716000Y-58962000D01*
X139716000Y-56864635D01*
X141716000Y-56864635D01*
X141716000Y-58962000D01*
G37*
G36*
X60926000Y-65973200D02*
G01*
X63023365Y-65973200D01*
X63023365Y-63973200D01*
X60926000Y-63973200D01*
X60926000Y-65973200D01*
G37*
G36*
X83480400Y-75708800D02*
G01*
X85480400Y-75708800D01*
X85480400Y-77806165D01*
X83480400Y-77806165D01*
X83480400Y-75708800D01*
G37*
G36*
X67598000Y-59045600D02*
G01*
X65500635Y-59045600D01*
X65500635Y-61045600D01*
X67598000Y-61045600D01*
X67598000Y-59045600D01*
G37*
D10*
X70250000Y-81000000D03*
D11*
X72750000Y-81000000D03*
D12*
X82448400Y-42214800D03*
D13*
X82448400Y-44754800D03*
X82448400Y-47294800D03*
X82448400Y-49834800D03*
X82448400Y-52374800D03*
X82448400Y-54914800D03*
D10*
X71500000Y-45411394D03*
D11*
X71500000Y-42911394D03*
D14*
X75000000Y-74950000D03*
X74950000Y-49950000D03*
D15*
X128173480Y-41592500D03*
D16*
X126174500Y-41592500D03*
X124175520Y-41592500D03*
X122174000Y-41592500D03*
X120175020Y-41592500D03*
X118173500Y-41592500D03*
X116174520Y-41592500D03*
X114175540Y-41592500D03*
X112176560Y-41592500D03*
X110177580Y-41592500D03*
X108176060Y-41592500D03*
X106177080Y-41592500D03*
X104175560Y-41592500D03*
X102176580Y-41592500D03*
X100177600Y-41592500D03*
X98176080Y-41592500D03*
D15*
X128173480Y-65989200D03*
D16*
X126174500Y-65989200D03*
X124175520Y-65989200D03*
X122174000Y-65989200D03*
X120175020Y-65989200D03*
X118173500Y-65989200D03*
X116174520Y-65989200D03*
X114175540Y-65989200D03*
X112176560Y-65989200D03*
X110177580Y-65989200D03*
X108176060Y-65989200D03*
X106177080Y-65989200D03*
X104175560Y-65989200D03*
X102176580Y-65989200D03*
X100177600Y-65989200D03*
X98176080Y-65989200D03*
D17*
X146964400Y-63576200D03*
X146964400Y-75006200D03*
D18*
X140614400Y-73736200D03*
X138074400Y-72466200D03*
X140614400Y-71196200D03*
X138074400Y-69926200D03*
X140614400Y-68656200D03*
X138074400Y-67386200D03*
X140614400Y-66116200D03*
X138074400Y-64846200D03*
D19*
X151765000Y-75641200D03*
X150241000Y-73101200D03*
X151739600Y-65532000D03*
X150215600Y-62992000D03*
D20*
X143916400Y-77165200D03*
X143916400Y-61417200D03*
D12*
X89916000Y-73355200D03*
D13*
X87376000Y-73355200D03*
X89916000Y-70815200D03*
X87376000Y-70815200D03*
X89916000Y-68275200D03*
X87376000Y-68275200D03*
X89916000Y-65735200D03*
X87376000Y-65735200D03*
X89916000Y-63195200D03*
X87376000Y-63195200D03*
X89916000Y-60655200D03*
X87376000Y-60655200D03*
X89916000Y-58115200D03*
X87376000Y-58115200D03*
X89916000Y-55575200D03*
X87376000Y-55575200D03*
X89916000Y-53035200D03*
X87376000Y-53035200D03*
X89916000Y-50495200D03*
X87376000Y-50495200D03*
X89916000Y-47955200D03*
X87376000Y-47955200D03*
X89916000Y-45415200D03*
X87376000Y-45415200D03*
X89916000Y-42875200D03*
X87376000Y-42875200D03*
D21*
X139320200Y-41500000D03*
X145820200Y-41500000D03*
X139320200Y-46000000D03*
X145820200Y-46000000D03*
D14*
X140050000Y-50000000D03*
D22*
X63227500Y-52290000D03*
D23*
X63227500Y-57370000D03*
X63227500Y-62450000D03*
X63227500Y-67530000D03*
X63227500Y-72610000D03*
D24*
X69170000Y-60000000D03*
X71710000Y-60000000D03*
X74250000Y-60000000D03*
D25*
X149656800Y-57861200D03*
D26*
X149656800Y-54051200D03*
X149656800Y-50241200D03*
D27*
X76002000Y-83228700D03*
D28*
X77002000Y-80528700D03*
X82002000Y-80528700D03*
D27*
X83002000Y-83228700D03*
D29*
X79349600Y-76183800D03*
X79349600Y-77333800D03*
D30*
X84090200Y-69088000D03*
X82940200Y-69088000D03*
D29*
X81889600Y-77333800D03*
X81889600Y-76183800D03*
X138074400Y-58487000D03*
X138074400Y-57337000D03*
D30*
X71695000Y-72034400D03*
X70545000Y-72034400D03*
D29*
X140716000Y-58487000D03*
X140716000Y-57337000D03*
D30*
X61401000Y-64973200D03*
X62551000Y-64973200D03*
D29*
X84480400Y-76183800D03*
X84480400Y-77333800D03*
D30*
X67123000Y-60045600D03*
X65973000Y-60045600D03*
M02*
