M48
; DRILL file {KiCad 7.0.5-0} date 2024 November 09, Saturday 14:15:51
; FORMAT={2:4/ absolute / inch / suppress leading zeros}
; #@! TF.CreationDate,2024-11-09T14:15:51+01:00
; #@! TF.GenerationSoftware,Kicad,Pcbnew,7.0.5-0
; #@! TF.FileFunction,MixedPlating,1,2
FMAT,2
INCH,TZ
; #@! TA.AperFunction,Plated,PTH,ViaDrill
T1C0.0157
; #@! TA.AperFunction,Plated,PTH,ViaDrill
T2C0.0197
; #@! TA.AperFunction,Plated,PTH,ViaDrill
T3C0.0236
; #@! TA.AperFunction,Plated,PTH,ComponentDrill
T4C0.0236
; #@! TA.AperFunction,Plated,PTH,ComponentDrill
T5C0.0300
; #@! TA.AperFunction,Plated,PTH,ComponentDrill
T6C0.0314
; #@! TA.AperFunction,Plated,PTH,ComponentDrill
T7C0.0315
; #@! TA.AperFunction,Plated,PTH,ComponentDrill
T8C0.0335
; #@! TA.AperFunction,Plated,PTH,ViaDrill
T9C0.0394
; #@! TA.AperFunction,Plated,PTH,ComponentDrill
T10C0.0394
; #@! TA.AperFunction,Plated,PTH,ComponentDrill
T11C0.0400
; #@! TA.AperFunction,Plated,PTH,ComponentDrill
T12C0.0433
; #@! TA.AperFunction,Plated,PTH,ComponentDrill
T13C0.0472
; #@! TA.AperFunction,Plated,PTH,ComponentDrill
T14C0.0512
; #@! TA.AperFunction,Plated,PTH,ComponentDrill
T15C0.0630
; #@! TA.AperFunction,Plated,PTH,ComponentDrill
T16C0.1260
; #@! TA.AperFunction,NonPlated,NPTH,ComponentDrill
T17C0.1260
%
G90
G05
T1
X24643Y-19518
X25273Y-19518
X25778Y-26343
X25903Y-18888
X25903Y-19518
X25903Y-20148
X27162Y-16368
X27162Y-18888
X27162Y-19518
X27162Y-21407
X27340Y-26280
X27792Y-16368
X27792Y-18888
X27792Y-19518
X27792Y-21407
X28422Y-20778
X28422Y-21407
X28850Y-26650
X28939Y-26946
X29100Y-26450
X29300Y-26020
X29740Y-26040
X29939Y-26946
X30312Y-16368
X30312Y-23297
X30942Y-16368
X30942Y-17628
X30942Y-19518
X30942Y-20148
X30942Y-20778
X31220Y-26820
X31572Y-16368
X31572Y-17628
X31572Y-18258
X31795Y-27540
X32000Y-26510
X32226Y-26286
X32660Y-23060
X33462Y-32116
X33700Y-26960
X33899Y-31179
X34092Y-32116
X34700Y-29323
X34721Y-32116
X34729Y-23297
X35108Y-25380
X35700Y-28300
X35920Y-31600
X35981Y-32116
X36120Y-21740
X36320Y-24140
X36408Y-24426
X36440Y-16860
X36560Y-29980
X36611Y-19518
X36980Y-17360
X37027Y-26951
X37030Y-27814
X37040Y-29880
X37080Y-28818
X37120Y-29560
X37148Y-28310
X37241Y-19518
X37241Y-24557
X37720Y-32140
X37720Y-31226
X37760Y-30800
X37800Y-33028
X37830Y-32470
X37871Y-19518
X37871Y-23927
X37871Y-24557
X38501Y-23927
X38501Y-24557
X38820Y-22060
X39131Y-22667
X39131Y-23927
X39131Y-24557
X39761Y-22037
X39761Y-22667
X39761Y-23927
X39761Y-24557
X40380Y-20040
X40391Y-22037
X40391Y-22667
X40391Y-23927
X40391Y-24557
X41021Y-22037
X41021Y-22667
X41021Y-23927
X41400Y-24800
X41540Y-19206
X41651Y-22037
X41651Y-22667
X41651Y-23927
X41800Y-17086
X41860Y-18900
X42281Y-22037
X42281Y-22667
X42600Y-17700
X42880Y-17360
X42910Y-22037
X42910Y-22667
X43380Y-18880
X43540Y-22037
X43540Y-22667
X43760Y-16840
X44065Y-17214
X44170Y-22037
X44170Y-22667
X44800Y-19518
X44800Y-22037
X44800Y-22667
X45430Y-19518
X45430Y-22037
X45430Y-22667
X46060Y-19518
X46060Y-22037
X46060Y-22667
X46310Y-24600
X46540Y-21380
X46690Y-19518
X47320Y-19518
X47320Y-20148
X47320Y-22667
X47400Y-21150
X47950Y-19518
X47950Y-20148
X47950Y-20778
X47950Y-21407
X48100Y-23400
X48500Y-23400
X48580Y-19518
X48580Y-20148
X48580Y-20778
X48580Y-21407
X48580Y-22037
X49210Y-20148
X49210Y-20778
X49210Y-21407
X49210Y-22037
X49210Y-23297
X49680Y-17880
X49740Y-24580
X49840Y-20778
X49840Y-21407
X49840Y-22037
X49840Y-23297
X50469Y-21407
X50469Y-22037
X50680Y-23980
X51000Y-29620
X51000Y-31400
X51040Y-28620
X51060Y-30020
X51060Y-30920
X51099Y-22037
X51680Y-27500
X51699Y-28305
X51729Y-16998
X51780Y-27200
X52340Y-25661
X52359Y-17628
X52707Y-27400
X52726Y-24420
X52784Y-21824
X52989Y-18258
X53120Y-31120
X53550Y-25960
X53619Y-16368
X53619Y-25187
X53619Y-26447
X53619Y-27077
X53619Y-31486
X53800Y-18920
X53860Y-21860
X54249Y-30226
X54249Y-31486
X54879Y-16998
X54879Y-29596
X54879Y-30226
X55300Y-32440
X55509Y-16998
X55509Y-29596
X56139Y-16998
X56720Y-22520
X56769Y-16998
X56769Y-32116
X57040Y-19920
X57120Y-22560
X57280Y-21380
X57399Y-16998
X57399Y-26447
X57399Y-27707
X57399Y-28337
X57399Y-32116
X57480Y-22394
X58029Y-18888
X58029Y-23927
X58029Y-26447
X58029Y-27707
X58029Y-28337
X58029Y-30856
X58658Y-26447
X58658Y-27707
X58658Y-30226
X59918Y-27707
X59918Y-28337
X59918Y-28967
T2
X26160Y-25400
X26760Y-22800
X27240Y-25920
X27400Y-20380
X27460Y-28355
X29640Y-31780
X30800Y-30740
X33854Y-30700
T3
X24820Y-27540
X25940Y-28580
X26300Y-27240
X27320Y-26700
X28250Y-26650
X32380Y-29394
X33100Y-28100
X33234Y-29106
X37103Y-31659
X49800Y-29172
X49800Y-31772
X50534Y-26553
X52237Y-29300
X52340Y-22820
X52550Y-26550
X55110Y-23515
X56940Y-33040
X58166Y-20661
T5
X54360Y-25530
X54360Y-26530
X54360Y-27530
X54360Y-28530
X55360Y-26030
X55360Y-27030
X55360Y-28030
X55360Y-29030
T6
X38652Y-16375
X38652Y-25980
X39440Y-16375
X39440Y-25980
X40227Y-16375
X40227Y-25980
X41014Y-16375
X41014Y-25980
X41802Y-16375
X41802Y-25980
X42589Y-16375
X42589Y-25980
X43377Y-16375
X43377Y-25980
X44164Y-16375
X44164Y-25980
X44951Y-16375
X44951Y-25980
X45738Y-16375
X45738Y-25980
X46525Y-16375
X46525Y-25980
X47313Y-16375
X47313Y-25980
X48100Y-16375
X48100Y-25980
X48888Y-16375
X48888Y-25980
X49675Y-16375
X49675Y-25980
X50462Y-16375
X50462Y-25980
T7
X27657Y-31890
X28150Y-16894
X28150Y-17879
X28642Y-31890
T8
X30316Y-31704
X32284Y-31704
T9
X31720Y-24680
T10
X27232Y-23622
X28232Y-23622
X29232Y-23622
X32460Y-16620
X32460Y-17620
X32460Y-18620
X32460Y-19620
X32460Y-20620
X32460Y-21620
X34400Y-16880
X34400Y-17880
X34400Y-18880
X34400Y-19880
X34400Y-20880
X34400Y-21880
X34400Y-22880
X34400Y-23880
X34400Y-24880
X34400Y-25880
X34400Y-26880
X34400Y-27880
X34400Y-28880
X35400Y-16880
X35400Y-17880
X35400Y-18880
X35400Y-19880
X35400Y-20880
X35400Y-21880
X35400Y-22880
X35400Y-23880
X35400Y-24880
X35400Y-25880
X35400Y-26880
X35400Y-27880
X35400Y-28880
T11
X59140Y-24800
X59150Y-28780
X59740Y-25800
X59750Y-29780
T12
X54850Y-16339
X54850Y-18110
X57410Y-16339
X57410Y-18110
T13
X58920Y-19780
X58920Y-21280
X58920Y-22780
T14
X24893Y-20587
X24893Y-22587
X24893Y-24587
X24893Y-26587
X24893Y-28587
T15
X56660Y-24180
X56660Y-30380
T16
X29508Y-19665
X29528Y-29508
X55138Y-19685
T17
X57860Y-25030
X57860Y-29530
T4
G00X29922Y-32905
M15
G01X29922Y-32629
M16
G05
G00X32678Y-32629
M15
G01X32678Y-32905
M16
G05
T0
M30
