G04 #@! TF.GenerationSoftware,KiCad,Pcbnew,7.0.5-0*
G04 #@! TF.CreationDate,2024-11-09T14:15:42+01:00*
G04 #@! TF.ProjectId,p44mini_lx,7034346d-696e-4695-9f6c-782e6b696361,rev?*
G04 #@! TF.SameCoordinates,Original*
G04 #@! TF.FileFunction,Soldermask,Top*
G04 #@! TF.FilePolarity,Negative*
%FSLAX46Y46*%
G04 Gerber Fmt 4.6, Leading zero omitted, Abs format (unit mm)*
G04 Created by KiCad (PCBNEW 7.0.5-0) date 2024-11-09 14:15:42*
%MOMM*%
%LPD*%
G01*
G04 APERTURE LIST*
G04 Aperture macros list*
%AMRoundRect*
0 Rectangle with rounded corners*
0 $1 Rounding radius*
0 $2 $3 $4 $5 $6 $7 $8 $9 X,Y pos of 4 corners*
0 Add a 4 corners polygon primitive as box body*
4,1,4,$2,$3,$4,$5,$6,$7,$8,$9,$2,$3,0*
0 Add four circle primitives for the rounded corners*
1,1,$1+$1,$2,$3*
1,1,$1+$1,$4,$5*
1,1,$1+$1,$6,$7*
1,1,$1+$1,$8,$9*
0 Add four rect primitives between the rounded corners*
20,1,$1+$1,$2,$3,$4,$5,0*
20,1,$1+$1,$4,$5,$6,$7,0*
20,1,$1+$1,$6,$7,$8,$9,0*
20,1,$1+$1,$8,$9,$2,$3,0*%
%AMFreePoly0*
4,1,13,-0.325000,0.112500,-0.316436,0.155552,-0.292050,0.192050,-0.255552,0.216436,-0.212500,0.225000,0.325000,0.225000,0.325000,-0.225000,-0.212500,-0.225000,-0.255552,-0.216436,-0.292050,-0.192050,-0.316436,-0.155552,-0.325000,-0.112500,-0.325000,0.112500,-0.325000,0.112500,$1*%
%AMFreePoly1*
4,1,13,-0.325000,0.225000,0.212500,0.225000,0.255552,0.216436,0.292050,0.192050,0.316436,0.155552,0.325000,0.112500,0.325000,-0.112500,0.316436,-0.155552,0.292050,-0.192050,0.255552,-0.216436,0.212500,-0.225000,-0.325000,-0.225000,-0.325000,0.225000,-0.325000,0.225000,$1*%
%AMFreePoly2*
4,1,9,3.862500,-0.866500,0.737500,-0.866500,0.737500,-0.450000,-0.737500,-0.450000,-0.737500,0.450000,0.737500,0.450000,0.737500,0.866500,3.862500,0.866500,3.862500,-0.866500,3.862500,-0.866500,$1*%
G04 Aperture macros list end*
%ADD10FreePoly0,180.000000*%
%ADD11FreePoly1,180.000000*%
%ADD12FreePoly0,0.000000*%
%ADD13FreePoly1,0.000000*%
%ADD14R,1.600000X1.600000*%
%ADD15C,1.600000*%
%ADD16RoundRect,0.250000X0.625000X-0.312500X0.625000X0.312500X-0.625000X0.312500X-0.625000X-0.312500X0*%
%ADD17RoundRect,0.250000X-0.325000X-0.650000X0.325000X-0.650000X0.325000X0.650000X-0.325000X0.650000X0*%
%ADD18RoundRect,0.250000X0.325000X0.650000X-0.325000X0.650000X-0.325000X-0.650000X0.325000X-0.650000X0*%
%ADD19RoundRect,0.150000X0.150000X-0.825000X0.150000X0.825000X-0.150000X0.825000X-0.150000X-0.825000X0*%
%ADD20RoundRect,0.250000X-0.650000X0.325000X-0.650000X-0.325000X0.650000X-0.325000X0.650000X0.325000X0*%
%ADD21RoundRect,0.250000X-0.625000X0.312500X-0.625000X-0.312500X0.625000X-0.312500X0.625000X0.312500X0*%
%ADD22R,1.700000X1.700000*%
%ADD23O,1.700000X1.700000*%
%ADD24RoundRect,0.250000X0.350000X-0.850000X0.350000X0.850000X-0.350000X0.850000X-0.350000X-0.850000X0*%
%ADD25RoundRect,0.249997X2.650003X-2.950003X2.650003X2.950003X-2.650003X2.950003X-2.650003X-2.950003X0*%
%ADD26RoundRect,0.250000X0.450000X-0.262500X0.450000X0.262500X-0.450000X0.262500X-0.450000X-0.262500X0*%
%ADD27R,2.209800X0.863600*%
%ADD28RoundRect,0.250000X0.650000X-0.325000X0.650000X0.325000X-0.650000X0.325000X-0.650000X-0.325000X0*%
%ADD29C,5.600000*%
%ADD30RoundRect,0.250000X-0.312500X-0.625000X0.312500X-0.625000X0.312500X0.625000X-0.312500X0.625000X0*%
%ADD31R,1.305560X1.305560*%
%ADD32C,1.305560*%
%ADD33C,3.200000*%
%ADD34C,1.524000*%
%ADD35C,2.032000*%
%ADD36C,3.048000*%
%ADD37RoundRect,0.250000X0.312500X0.625000X-0.312500X0.625000X-0.312500X-0.625000X0.312500X-0.625000X0*%
%ADD38C,2.000000*%
%ADD39R,0.900000X1.300000*%
%ADD40FreePoly2,270.000000*%
%ADD41R,2.540000X2.540000*%
%ADD42C,2.540000*%
%ADD43O,1.800000X2.540000*%
%ADD44RoundRect,0.250000X1.550000X-0.650000X1.550000X0.650000X-1.550000X0.650000X-1.550000X-0.650000X0*%
%ADD45O,3.600000X1.800000*%
%ADD46R,0.400000X1.350000*%
%ADD47O,1.200000X1.900000*%
%ADD48R,1.200000X1.900000*%
%ADD49C,1.450000*%
%ADD50R,1.500000X1.900000*%
G04 APERTURE END LIST*
D10*
X96987000Y-73160000D03*
X96987000Y-72390000D03*
X96987000Y-71620000D03*
D11*
X95037000Y-71620000D03*
X95037000Y-72390000D03*
X95037000Y-73160000D03*
D12*
X113325000Y-81526000D03*
X113325000Y-82296000D03*
X113325000Y-83066000D03*
D13*
X115275000Y-83066000D03*
X115275000Y-82296000D03*
X115275000Y-81526000D03*
D14*
X70250000Y-81000000D03*
D15*
X72750000Y-81000000D03*
D12*
X122469000Y-81526000D03*
X122469000Y-82296000D03*
X122469000Y-83066000D03*
D13*
X124419000Y-83066000D03*
X124419000Y-82296000D03*
X124419000Y-81526000D03*
D12*
X101133000Y-81526000D03*
X101133000Y-82296000D03*
X101133000Y-83066000D03*
D13*
X103083000Y-83066000D03*
X103083000Y-82296000D03*
X103083000Y-81526000D03*
D16*
X66497200Y-70712500D03*
X66497200Y-67787500D03*
D17*
X137209000Y-59182000D03*
X140159000Y-59182000D03*
D12*
X104181000Y-81526000D03*
X104181000Y-82296000D03*
X104181000Y-83066000D03*
D13*
X106131000Y-83066000D03*
X106131000Y-82296000D03*
X106131000Y-81526000D03*
D12*
X119421000Y-81526000D03*
X119421000Y-82296000D03*
X119421000Y-83066000D03*
D13*
X121371000Y-83066000D03*
X121371000Y-82296000D03*
X121371000Y-81526000D03*
D12*
X116373000Y-81526000D03*
X116373000Y-82296000D03*
X116373000Y-83066000D03*
D13*
X118323000Y-83066000D03*
X118323000Y-82296000D03*
X118323000Y-81526000D03*
D12*
X98085000Y-74922000D03*
X98085000Y-75692000D03*
X98085000Y-76462000D03*
D13*
X100035000Y-76462000D03*
X100035000Y-75692000D03*
X100035000Y-74922000D03*
D17*
X70051400Y-83210400D03*
X73001400Y-83210400D03*
D12*
X110277000Y-81526000D03*
X110277000Y-82296000D03*
X110277000Y-83066000D03*
D13*
X112227000Y-83066000D03*
X112227000Y-82296000D03*
X112227000Y-81526000D03*
D10*
X100035000Y-73160000D03*
X100035000Y-72390000D03*
X100035000Y-71620000D03*
D11*
X98085000Y-71620000D03*
X98085000Y-72390000D03*
X98085000Y-73160000D03*
D18*
X70875000Y-51850000D03*
X67925000Y-51850000D03*
D12*
X110277000Y-68318000D03*
X110277000Y-69088000D03*
X110277000Y-69858000D03*
D13*
X112227000Y-69858000D03*
X112227000Y-69088000D03*
X112227000Y-68318000D03*
D12*
X122469000Y-74922000D03*
X122469000Y-75692000D03*
X122469000Y-76462000D03*
D13*
X124419000Y-76462000D03*
X124419000Y-75692000D03*
X124419000Y-74922000D03*
D10*
X118323000Y-79764000D03*
X118323000Y-78994000D03*
X118323000Y-78224000D03*
D11*
X116373000Y-78224000D03*
X116373000Y-78994000D03*
X116373000Y-79764000D03*
D19*
X142621000Y-58405800D03*
X143891000Y-58405800D03*
X145161000Y-58405800D03*
X146431000Y-58405800D03*
X146431000Y-53455800D03*
X145161000Y-53455800D03*
X143891000Y-53455800D03*
X142621000Y-53455800D03*
D16*
X136906000Y-57088500D03*
X136906000Y-54163500D03*
D12*
X101133000Y-68318000D03*
X101133000Y-69088000D03*
X101133000Y-69858000D03*
D13*
X103083000Y-69858000D03*
X103083000Y-69088000D03*
X103083000Y-68318000D03*
D18*
X135028200Y-73202800D03*
X132078200Y-73202800D03*
D20*
X92964000Y-69391000D03*
X92964000Y-72341000D03*
D10*
X115275000Y-79764000D03*
X115275000Y-78994000D03*
X115275000Y-78224000D03*
D11*
X113325000Y-78224000D03*
X113325000Y-78994000D03*
X113325000Y-79764000D03*
D21*
X136652000Y-44206700D03*
X136652000Y-47131700D03*
D12*
X128565000Y-81526000D03*
X128565000Y-82296000D03*
X128565000Y-83066000D03*
D13*
X130515000Y-83066000D03*
X130515000Y-82296000D03*
X130515000Y-81526000D03*
D12*
X119421000Y-68318000D03*
X119421000Y-69088000D03*
X119421000Y-69858000D03*
D13*
X121371000Y-69858000D03*
X121371000Y-69088000D03*
X121371000Y-68318000D03*
D22*
X82448400Y-42214800D03*
D23*
X82448400Y-44754800D03*
X82448400Y-47294800D03*
X82448400Y-49834800D03*
X82448400Y-52374800D03*
X82448400Y-54914800D03*
D10*
X121371000Y-79764000D03*
X121371000Y-78994000D03*
X121371000Y-78224000D03*
D11*
X119421000Y-78224000D03*
X119421000Y-78994000D03*
X119421000Y-79764000D03*
D14*
X71500000Y-45411394D03*
D15*
X71500000Y-42911394D03*
D10*
X112227000Y-73160000D03*
X112227000Y-72390000D03*
X112227000Y-71620000D03*
D11*
X110277000Y-71620000D03*
X110277000Y-72390000D03*
X110277000Y-73160000D03*
D24*
X79660400Y-69098800D03*
D25*
X81940400Y-62798800D03*
D24*
X84220400Y-69098800D03*
D10*
X130515000Y-79764000D03*
X130515000Y-78994000D03*
X130515000Y-78224000D03*
D11*
X128565000Y-78224000D03*
X128565000Y-78994000D03*
X128565000Y-79764000D03*
D26*
X132842000Y-66190500D03*
X132842000Y-64365500D03*
D27*
X133159500Y-79029999D03*
X140652500Y-79029999D03*
X133159500Y-83530001D03*
X140652500Y-83530001D03*
D12*
X95037000Y-81526000D03*
X95037000Y-82296000D03*
X95037000Y-83066000D03*
D13*
X96987000Y-83066000D03*
X96987000Y-82296000D03*
X96987000Y-81526000D03*
D26*
X134874000Y-64158500D03*
X134874000Y-62333500D03*
D28*
X92964000Y-67515000D03*
X92964000Y-64565000D03*
D12*
X95037000Y-68318000D03*
X95037000Y-69088000D03*
X95037000Y-69858000D03*
D13*
X96987000Y-69858000D03*
X96987000Y-69088000D03*
X96987000Y-68318000D03*
D10*
X106131000Y-79764000D03*
X106131000Y-78994000D03*
X106131000Y-78224000D03*
D11*
X104181000Y-78224000D03*
X104181000Y-78994000D03*
X104181000Y-79764000D03*
D20*
X80010000Y-75487000D03*
X80010000Y-78437000D03*
D10*
X115275000Y-73160000D03*
X115275000Y-72390000D03*
X115275000Y-71620000D03*
D11*
X113325000Y-71620000D03*
X113325000Y-72390000D03*
X113325000Y-73160000D03*
D12*
X107229000Y-68318000D03*
X107229000Y-69088000D03*
X107229000Y-69858000D03*
D13*
X109179000Y-69858000D03*
X109179000Y-69088000D03*
X109179000Y-68318000D03*
D10*
X109179000Y-73160000D03*
X109179000Y-72390000D03*
X109179000Y-71620000D03*
D11*
X107229000Y-71620000D03*
X107229000Y-72390000D03*
X107229000Y-73160000D03*
D29*
X75000000Y-74950000D03*
D16*
X145415000Y-51119500D03*
X145415000Y-48194500D03*
D10*
X96987000Y-79764000D03*
X96987000Y-78994000D03*
X96987000Y-78224000D03*
D11*
X95037000Y-78224000D03*
X95037000Y-78994000D03*
X95037000Y-79764000D03*
D26*
X134874000Y-67714500D03*
X134874000Y-65889500D03*
D29*
X74950000Y-49950000D03*
D12*
X125517000Y-74922000D03*
X125517000Y-75692000D03*
X125517000Y-76462000D03*
D13*
X127467000Y-76462000D03*
X127467000Y-75692000D03*
X127467000Y-74922000D03*
D12*
X122469000Y-68318000D03*
X122469000Y-69088000D03*
X122469000Y-69858000D03*
D13*
X124419000Y-69858000D03*
X124419000Y-69088000D03*
X124419000Y-68318000D03*
D10*
X118323000Y-73160000D03*
X118323000Y-72390000D03*
X118323000Y-71620000D03*
D11*
X116373000Y-71620000D03*
X116373000Y-72390000D03*
X116373000Y-73160000D03*
D30*
X87310500Y-76835000D03*
X90235500Y-76835000D03*
D31*
X128173480Y-41592500D03*
D32*
X126174500Y-41592500D03*
X124175520Y-41592500D03*
X122174000Y-41592500D03*
X120175020Y-41592500D03*
X118173500Y-41592500D03*
X116174520Y-41592500D03*
X114175540Y-41592500D03*
X112176560Y-41592500D03*
X110177580Y-41592500D03*
X108176060Y-41592500D03*
X106177080Y-41592500D03*
X104175560Y-41592500D03*
X102176580Y-41592500D03*
X100177600Y-41592500D03*
X98176080Y-41592500D03*
D31*
X128173480Y-65989200D03*
D32*
X126174500Y-65989200D03*
X124175520Y-65989200D03*
X122174000Y-65989200D03*
X120175020Y-65989200D03*
X118173500Y-65989200D03*
X116174520Y-65989200D03*
X114175540Y-65989200D03*
X112176560Y-65989200D03*
X110177580Y-65989200D03*
X108176060Y-65989200D03*
X106177080Y-65989200D03*
X104175560Y-65989200D03*
X102176580Y-65989200D03*
X100177600Y-65989200D03*
X98176080Y-65989200D03*
D28*
X132588000Y-71071000D03*
X132588000Y-68121000D03*
D19*
X69190000Y-69475000D03*
X70460000Y-69475000D03*
X71730000Y-69475000D03*
X73000000Y-69475000D03*
X74270000Y-69475000D03*
X75540000Y-69475000D03*
X76810000Y-69475000D03*
X76810000Y-64525000D03*
X75540000Y-64525000D03*
X74270000Y-64525000D03*
X73000000Y-64525000D03*
X71730000Y-64525000D03*
X70460000Y-64525000D03*
X69190000Y-64525000D03*
D33*
X146964400Y-63576200D03*
X146964400Y-75006200D03*
D34*
X140614400Y-73736200D03*
X138074400Y-72466200D03*
X140614400Y-71196200D03*
X138074400Y-69926200D03*
X140614400Y-68656200D03*
X138074400Y-67386200D03*
X140614400Y-66116200D03*
X138074400Y-64846200D03*
D35*
X151765000Y-75641200D03*
X150241000Y-73101200D03*
X151739600Y-65532000D03*
X150215600Y-62992000D03*
D36*
X143916400Y-77165200D03*
X143916400Y-61417200D03*
D28*
X77000000Y-45725000D03*
X77000000Y-42775000D03*
D27*
X85255100Y-79029999D03*
X92748100Y-79029999D03*
X85255100Y-83530001D03*
X92748100Y-83530001D03*
D20*
X130505200Y-63193400D03*
X130505200Y-66143400D03*
D12*
X116373000Y-68318000D03*
X116373000Y-69088000D03*
X116373000Y-69858000D03*
D13*
X118323000Y-69858000D03*
X118323000Y-69088000D03*
X118323000Y-68318000D03*
D22*
X89916000Y-73355200D03*
D23*
X87376000Y-73355200D03*
X89916000Y-70815200D03*
X87376000Y-70815200D03*
X89916000Y-68275200D03*
X87376000Y-68275200D03*
X89916000Y-65735200D03*
X87376000Y-65735200D03*
X89916000Y-63195200D03*
X87376000Y-63195200D03*
X89916000Y-60655200D03*
X87376000Y-60655200D03*
X89916000Y-58115200D03*
X87376000Y-58115200D03*
X89916000Y-55575200D03*
X87376000Y-55575200D03*
X89916000Y-53035200D03*
X87376000Y-53035200D03*
X89916000Y-50495200D03*
X87376000Y-50495200D03*
X89916000Y-47955200D03*
X87376000Y-47955200D03*
X89916000Y-45415200D03*
X87376000Y-45415200D03*
X89916000Y-42875200D03*
X87376000Y-42875200D03*
D12*
X128565000Y-74922000D03*
X128565000Y-75692000D03*
X128565000Y-76462000D03*
D13*
X130515000Y-76462000D03*
X130515000Y-75692000D03*
X130515000Y-74922000D03*
D20*
X145796000Y-80313000D03*
X145796000Y-83263000D03*
D12*
X107229000Y-81526000D03*
X107229000Y-82296000D03*
X107229000Y-83066000D03*
D13*
X109179000Y-83066000D03*
X109179000Y-82296000D03*
X109179000Y-81526000D03*
D12*
X116373000Y-74922000D03*
X116373000Y-75692000D03*
X116373000Y-76462000D03*
D13*
X118323000Y-76462000D03*
X118323000Y-75692000D03*
X118323000Y-74922000D03*
D10*
X106131000Y-73160000D03*
X106131000Y-72390000D03*
X106131000Y-71620000D03*
D11*
X104181000Y-71620000D03*
X104181000Y-72390000D03*
X104181000Y-73160000D03*
D12*
X98085000Y-81526000D03*
X98085000Y-82296000D03*
X98085000Y-83066000D03*
D13*
X100035000Y-83066000D03*
X100035000Y-82296000D03*
X100035000Y-81526000D03*
D10*
X103083000Y-73160000D03*
X103083000Y-72390000D03*
X103083000Y-71620000D03*
D11*
X101133000Y-71620000D03*
X101133000Y-72390000D03*
X101133000Y-73160000D03*
D28*
X74117200Y-45671000D03*
X74117200Y-42721000D03*
D10*
X124419000Y-73160000D03*
X124419000Y-72390000D03*
X124419000Y-71620000D03*
D11*
X122469000Y-71620000D03*
X122469000Y-72390000D03*
X122469000Y-73160000D03*
D20*
X82550000Y-75487000D03*
X82550000Y-78437000D03*
D12*
X110277000Y-74922000D03*
X110277000Y-75692000D03*
X110277000Y-76462000D03*
D13*
X112227000Y-76462000D03*
X112227000Y-75692000D03*
X112227000Y-74922000D03*
D10*
X124419000Y-79764000D03*
X124419000Y-78994000D03*
X124419000Y-78224000D03*
D11*
X122469000Y-78224000D03*
X122469000Y-78994000D03*
X122469000Y-79764000D03*
D12*
X98085000Y-68318000D03*
X98085000Y-69088000D03*
X98085000Y-69858000D03*
D13*
X100035000Y-69858000D03*
X100035000Y-69088000D03*
X100035000Y-68318000D03*
D37*
X85282500Y-72136000D03*
X82357500Y-72136000D03*
D38*
X139320200Y-41500000D03*
X145820200Y-41500000D03*
X139320200Y-46000000D03*
X145820200Y-46000000D03*
D20*
X140055600Y-54151000D03*
X140055600Y-57101000D03*
D10*
X103083000Y-79764000D03*
X103083000Y-78994000D03*
X103083000Y-78224000D03*
D11*
X101133000Y-78224000D03*
X101133000Y-78994000D03*
X101133000Y-79764000D03*
D37*
X80710500Y-72136000D03*
X77785500Y-72136000D03*
D12*
X95037000Y-74922000D03*
X95037000Y-75692000D03*
X95037000Y-76462000D03*
D13*
X96987000Y-76462000D03*
X96987000Y-75692000D03*
X96987000Y-74922000D03*
D29*
X140050000Y-50000000D03*
D12*
X128565000Y-68318000D03*
X128565000Y-69088000D03*
X128565000Y-69858000D03*
D13*
X130515000Y-69858000D03*
X130515000Y-69088000D03*
X130515000Y-68318000D03*
D12*
X107229000Y-74922000D03*
X107229000Y-75692000D03*
X107229000Y-76462000D03*
D13*
X109179000Y-76462000D03*
X109179000Y-75692000D03*
X109179000Y-74922000D03*
D39*
X69750000Y-72624400D03*
D40*
X68250000Y-72711900D03*
D39*
X66750000Y-72624400D03*
D20*
X143256000Y-80313000D03*
X143256000Y-83263000D03*
D10*
X109179000Y-79764000D03*
X109179000Y-78994000D03*
X109179000Y-78224000D03*
D11*
X107229000Y-78224000D03*
X107229000Y-78994000D03*
X107229000Y-79764000D03*
D41*
X63227500Y-52290000D03*
D42*
X63227500Y-57370000D03*
X63227500Y-62450000D03*
X63227500Y-67530000D03*
X63227500Y-72610000D03*
D10*
X127467000Y-73160000D03*
X127467000Y-72390000D03*
X127467000Y-71620000D03*
D11*
X125517000Y-71620000D03*
X125517000Y-72390000D03*
X125517000Y-73160000D03*
D43*
X69170000Y-60000000D03*
X71710000Y-60000000D03*
X74250000Y-60000000D03*
D12*
X113325000Y-74922000D03*
X113325000Y-75692000D03*
X113325000Y-76462000D03*
D13*
X115275000Y-76462000D03*
X115275000Y-75692000D03*
X115275000Y-74922000D03*
D10*
X112227000Y-79764000D03*
X112227000Y-78994000D03*
X112227000Y-78224000D03*
D11*
X110277000Y-78224000D03*
X110277000Y-78994000D03*
X110277000Y-79764000D03*
D26*
X134874000Y-71270500D03*
X134874000Y-69445500D03*
D18*
X135028200Y-75641200D03*
X132078200Y-75641200D03*
D12*
X125517000Y-68318000D03*
X125517000Y-69088000D03*
X125517000Y-69858000D03*
D13*
X127467000Y-69858000D03*
X127467000Y-69088000D03*
X127467000Y-68318000D03*
D28*
X92964000Y-77167000D03*
X92964000Y-74217000D03*
D44*
X149656800Y-57861200D03*
D45*
X149656800Y-54051200D03*
X149656800Y-50241200D03*
D10*
X127467000Y-79764000D03*
X127467000Y-78994000D03*
X127467000Y-78224000D03*
D11*
X125517000Y-78224000D03*
X125517000Y-78994000D03*
X125517000Y-79764000D03*
D10*
X121371000Y-73160000D03*
X121371000Y-72390000D03*
X121371000Y-71620000D03*
D11*
X119421000Y-71620000D03*
X119421000Y-72390000D03*
X119421000Y-73160000D03*
D30*
X81798700Y-58166000D03*
X84723700Y-58166000D03*
D12*
X104181000Y-68318000D03*
X104181000Y-69088000D03*
X104181000Y-69858000D03*
D13*
X106131000Y-69858000D03*
X106131000Y-69088000D03*
X106131000Y-68318000D03*
D16*
X66497200Y-65962500D03*
X66497200Y-63037500D03*
D12*
X101133000Y-74922000D03*
X101133000Y-75692000D03*
X101133000Y-76462000D03*
D13*
X103083000Y-76462000D03*
X103083000Y-75692000D03*
X103083000Y-74922000D03*
D10*
X100035000Y-79764000D03*
X100035000Y-78994000D03*
X100035000Y-78224000D03*
D11*
X98085000Y-78224000D03*
X98085000Y-78994000D03*
X98085000Y-79764000D03*
D12*
X125517000Y-81526000D03*
X125517000Y-82296000D03*
X125517000Y-83066000D03*
D13*
X127467000Y-83066000D03*
X127467000Y-82296000D03*
X127467000Y-81526000D03*
D12*
X113325000Y-68318000D03*
X113325000Y-69088000D03*
X113325000Y-69858000D03*
D13*
X115275000Y-69858000D03*
X115275000Y-69088000D03*
X115275000Y-68318000D03*
D12*
X119421000Y-74922000D03*
X119421000Y-75692000D03*
X119421000Y-76462000D03*
D13*
X121371000Y-76462000D03*
X121371000Y-75692000D03*
X121371000Y-74922000D03*
D46*
X78202000Y-80528700D03*
X78852000Y-80528700D03*
X79502000Y-80528700D03*
X80152000Y-80528700D03*
X80802000Y-80528700D03*
D47*
X76002000Y-83228700D03*
D48*
X76602000Y-83228700D03*
D49*
X77002000Y-80528700D03*
D50*
X78502000Y-83228700D03*
X80502000Y-83228700D03*
D49*
X82002000Y-80528700D03*
D48*
X82402000Y-83228700D03*
D47*
X83002000Y-83228700D03*
D12*
X104181000Y-74922000D03*
X104181000Y-75692000D03*
X104181000Y-76462000D03*
D13*
X106131000Y-76462000D03*
X106131000Y-75692000D03*
X106131000Y-74922000D03*
D28*
X79095600Y-58218600D03*
X79095600Y-55268600D03*
D10*
X130515000Y-73160000D03*
X130515000Y-72390000D03*
X130515000Y-71620000D03*
D11*
X128565000Y-71620000D03*
X128565000Y-72390000D03*
X128565000Y-73160000D03*
M02*
