G04 #@! TF.GenerationSoftware,KiCad,Pcbnew,7.0.5-0*
G04 #@! TF.CreationDate,2024-11-09T14:15:42+01:00*
G04 #@! TF.ProjectId,p44mini_lx,7034346d-696e-4695-9f6c-782e6b696361,rev?*
G04 #@! TF.SameCoordinates,Original*
G04 #@! TF.FileFunction,Legend,Bot*
G04 #@! TF.FilePolarity,Positive*
%FSLAX46Y46*%
G04 Gerber Fmt 4.6, Leading zero omitted, Abs format (unit mm)*
G04 Created by KiCad (PCBNEW 7.0.5-0) date 2024-11-09 14:15:42*
%MOMM*%
%LPD*%
G01*
G04 APERTURE LIST*
%ADD10C,0.300000*%
%ADD11C,0.200000*%
G04 APERTURE END LIST*
D10*
X63119000Y-64897000D02*
X66675000Y-65151000D01*
X81915000Y-78105000D02*
X83566000Y-80518000D01*
X140716000Y-55626000D02*
X140716000Y-56642000D01*
X66548000Y-58801000D02*
X66548000Y-56896000D01*
D11*
X146902707Y-50642742D02*
X146902707Y-49442742D01*
X146902707Y-49442742D02*
X146616993Y-49442742D01*
X146616993Y-49442742D02*
X146445564Y-49499885D01*
X146445564Y-49499885D02*
X146331279Y-49614171D01*
X146331279Y-49614171D02*
X146274136Y-49728457D01*
X146274136Y-49728457D02*
X146216993Y-49957028D01*
X146216993Y-49957028D02*
X146216993Y-50128457D01*
X146216993Y-50128457D02*
X146274136Y-50357028D01*
X146274136Y-50357028D02*
X146331279Y-50471314D01*
X146331279Y-50471314D02*
X146445564Y-50585600D01*
X146445564Y-50585600D02*
X146616993Y-50642742D01*
X146616993Y-50642742D02*
X146902707Y-50642742D01*
X145702707Y-50185600D02*
X144788422Y-50185600D01*
X80361136Y-41625885D02*
X80475422Y-41568742D01*
X80475422Y-41568742D02*
X80646850Y-41568742D01*
X80646850Y-41568742D02*
X80818279Y-41625885D01*
X80818279Y-41625885D02*
X80932564Y-41740171D01*
X80932564Y-41740171D02*
X80989707Y-41854457D01*
X80989707Y-41854457D02*
X81046850Y-42083028D01*
X81046850Y-42083028D02*
X81046850Y-42254457D01*
X81046850Y-42254457D02*
X80989707Y-42483028D01*
X80989707Y-42483028D02*
X80932564Y-42597314D01*
X80932564Y-42597314D02*
X80818279Y-42711600D01*
X80818279Y-42711600D02*
X80646850Y-42768742D01*
X80646850Y-42768742D02*
X80532564Y-42768742D01*
X80532564Y-42768742D02*
X80361136Y-42711600D01*
X80361136Y-42711600D02*
X80303993Y-42654457D01*
X80303993Y-42654457D02*
X80303993Y-42254457D01*
X80303993Y-42254457D02*
X80532564Y-42254457D01*
X79789707Y-42768742D02*
X79789707Y-41568742D01*
X79789707Y-41568742D02*
X79103993Y-42768742D01*
X79103993Y-42768742D02*
X79103993Y-41568742D01*
X78532564Y-42768742D02*
X78532564Y-41568742D01*
X78532564Y-41568742D02*
X78246850Y-41568742D01*
X78246850Y-41568742D02*
X78075421Y-41625885D01*
X78075421Y-41625885D02*
X77961136Y-41740171D01*
X77961136Y-41740171D02*
X77903993Y-41854457D01*
X77903993Y-41854457D02*
X77846850Y-42083028D01*
X77846850Y-42083028D02*
X77846850Y-42254457D01*
X77846850Y-42254457D02*
X77903993Y-42483028D01*
X77903993Y-42483028D02*
X77961136Y-42597314D01*
X77961136Y-42597314D02*
X78075421Y-42711600D01*
X78075421Y-42711600D02*
X78246850Y-42768742D01*
X78246850Y-42768742D02*
X78532564Y-42768742D01*
X65495707Y-70200742D02*
X65495707Y-69000742D01*
X65495707Y-69000742D02*
X65209993Y-69000742D01*
X65209993Y-69000742D02*
X65038564Y-69057885D01*
X65038564Y-69057885D02*
X64924279Y-69172171D01*
X64924279Y-69172171D02*
X64867136Y-69286457D01*
X64867136Y-69286457D02*
X64809993Y-69515028D01*
X64809993Y-69515028D02*
X64809993Y-69686457D01*
X64809993Y-69686457D02*
X64867136Y-69915028D01*
X64867136Y-69915028D02*
X64924279Y-70029314D01*
X64924279Y-70029314D02*
X65038564Y-70143600D01*
X65038564Y-70143600D02*
X65209993Y-70200742D01*
X65209993Y-70200742D02*
X65495707Y-70200742D01*
X63781422Y-70200742D02*
X63781422Y-69572171D01*
X63781422Y-69572171D02*
X63838564Y-69457885D01*
X63838564Y-69457885D02*
X63952850Y-69400742D01*
X63952850Y-69400742D02*
X64181422Y-69400742D01*
X64181422Y-69400742D02*
X64295707Y-69457885D01*
X63781422Y-70143600D02*
X63895707Y-70200742D01*
X63895707Y-70200742D02*
X64181422Y-70200742D01*
X64181422Y-70200742D02*
X64295707Y-70143600D01*
X64295707Y-70143600D02*
X64352850Y-70029314D01*
X64352850Y-70029314D02*
X64352850Y-69915028D01*
X64352850Y-69915028D02*
X64295707Y-69800742D01*
X64295707Y-69800742D02*
X64181422Y-69743600D01*
X64181422Y-69743600D02*
X63895707Y-69743600D01*
X63895707Y-69743600D02*
X63781422Y-69686457D01*
X63381422Y-69400742D02*
X62924279Y-69400742D01*
X63209993Y-69000742D02*
X63209993Y-70029314D01*
X63209993Y-70029314D02*
X63152850Y-70143600D01*
X63152850Y-70143600D02*
X63038565Y-70200742D01*
X63038565Y-70200742D02*
X62924279Y-70200742D01*
X62009994Y-70200742D02*
X62009994Y-69572171D01*
X62009994Y-69572171D02*
X62067136Y-69457885D01*
X62067136Y-69457885D02*
X62181422Y-69400742D01*
X62181422Y-69400742D02*
X62409994Y-69400742D01*
X62409994Y-69400742D02*
X62524279Y-69457885D01*
X62009994Y-70143600D02*
X62124279Y-70200742D01*
X62124279Y-70200742D02*
X62409994Y-70200742D01*
X62409994Y-70200742D02*
X62524279Y-70143600D01*
X62524279Y-70143600D02*
X62581422Y-70029314D01*
X62581422Y-70029314D02*
X62581422Y-69915028D01*
X62581422Y-69915028D02*
X62524279Y-69800742D01*
X62524279Y-69800742D02*
X62409994Y-69743600D01*
X62409994Y-69743600D02*
X62124279Y-69743600D01*
X62124279Y-69743600D02*
X62009994Y-69686457D01*
X60809994Y-70200742D02*
X61495708Y-70200742D01*
X61152851Y-70200742D02*
X61152851Y-69000742D01*
X61152851Y-69000742D02*
X61267137Y-69172171D01*
X61267137Y-69172171D02*
X61381422Y-69286457D01*
X61381422Y-69286457D02*
X61495708Y-69343600D01*
X82005707Y-81700742D02*
X82005707Y-82672171D01*
X82005707Y-82672171D02*
X81948564Y-82786457D01*
X81948564Y-82786457D02*
X81891422Y-82843600D01*
X81891422Y-82843600D02*
X81777136Y-82900742D01*
X81777136Y-82900742D02*
X81548564Y-82900742D01*
X81548564Y-82900742D02*
X81434279Y-82843600D01*
X81434279Y-82843600D02*
X81377136Y-82786457D01*
X81377136Y-82786457D02*
X81319993Y-82672171D01*
X81319993Y-82672171D02*
X81319993Y-81700742D01*
X80805707Y-82843600D02*
X80634279Y-82900742D01*
X80634279Y-82900742D02*
X80348564Y-82900742D01*
X80348564Y-82900742D02*
X80234279Y-82843600D01*
X80234279Y-82843600D02*
X80177136Y-82786457D01*
X80177136Y-82786457D02*
X80119993Y-82672171D01*
X80119993Y-82672171D02*
X80119993Y-82557885D01*
X80119993Y-82557885D02*
X80177136Y-82443600D01*
X80177136Y-82443600D02*
X80234279Y-82386457D01*
X80234279Y-82386457D02*
X80348564Y-82329314D01*
X80348564Y-82329314D02*
X80577136Y-82272171D01*
X80577136Y-82272171D02*
X80691421Y-82215028D01*
X80691421Y-82215028D02*
X80748564Y-82157885D01*
X80748564Y-82157885D02*
X80805707Y-82043600D01*
X80805707Y-82043600D02*
X80805707Y-81929314D01*
X80805707Y-81929314D02*
X80748564Y-81815028D01*
X80748564Y-81815028D02*
X80691421Y-81757885D01*
X80691421Y-81757885D02*
X80577136Y-81700742D01*
X80577136Y-81700742D02*
X80291421Y-81700742D01*
X80291421Y-81700742D02*
X80119993Y-81757885D01*
X79205707Y-82272171D02*
X79034279Y-82329314D01*
X79034279Y-82329314D02*
X78977136Y-82386457D01*
X78977136Y-82386457D02*
X78919993Y-82500742D01*
X78919993Y-82500742D02*
X78919993Y-82672171D01*
X78919993Y-82672171D02*
X78977136Y-82786457D01*
X78977136Y-82786457D02*
X79034279Y-82843600D01*
X79034279Y-82843600D02*
X79148564Y-82900742D01*
X79148564Y-82900742D02*
X79605707Y-82900742D01*
X79605707Y-82900742D02*
X79605707Y-81700742D01*
X79605707Y-81700742D02*
X79205707Y-81700742D01*
X79205707Y-81700742D02*
X79091422Y-81757885D01*
X79091422Y-81757885D02*
X79034279Y-81815028D01*
X79034279Y-81815028D02*
X78977136Y-81929314D01*
X78977136Y-81929314D02*
X78977136Y-82043600D01*
X78977136Y-82043600D02*
X79034279Y-82157885D01*
X79034279Y-82157885D02*
X79091422Y-82215028D01*
X79091422Y-82215028D02*
X79205707Y-82272171D01*
X79205707Y-82272171D02*
X79605707Y-82272171D01*
X77834279Y-81700742D02*
X78405707Y-81700742D01*
X78405707Y-81700742D02*
X78462850Y-82272171D01*
X78462850Y-82272171D02*
X78405707Y-82215028D01*
X78405707Y-82215028D02*
X78291422Y-82157885D01*
X78291422Y-82157885D02*
X78005707Y-82157885D01*
X78005707Y-82157885D02*
X77891422Y-82215028D01*
X77891422Y-82215028D02*
X77834279Y-82272171D01*
X77834279Y-82272171D02*
X77777136Y-82386457D01*
X77777136Y-82386457D02*
X77777136Y-82672171D01*
X77777136Y-82672171D02*
X77834279Y-82786457D01*
X77834279Y-82786457D02*
X77891422Y-82843600D01*
X77891422Y-82843600D02*
X78005707Y-82900742D01*
X78005707Y-82900742D02*
X78291422Y-82900742D01*
X78291422Y-82900742D02*
X78405707Y-82843600D01*
X78405707Y-82843600D02*
X78462850Y-82786457D01*
X77434279Y-81700742D02*
X77034279Y-82900742D01*
X77034279Y-82900742D02*
X76634279Y-81700742D01*
X72163279Y-62961742D02*
X72734707Y-62961742D01*
X72734707Y-62961742D02*
X72734707Y-61761742D01*
X71763278Y-62333171D02*
X71363278Y-62333171D01*
X71191850Y-62961742D02*
X71763278Y-62961742D01*
X71763278Y-62961742D02*
X71763278Y-61761742D01*
X71763278Y-61761742D02*
X71191850Y-61761742D01*
X70677564Y-62961742D02*
X70677564Y-61761742D01*
X70677564Y-61761742D02*
X70391850Y-61761742D01*
X70391850Y-61761742D02*
X70220421Y-61818885D01*
X70220421Y-61818885D02*
X70106136Y-61933171D01*
X70106136Y-61933171D02*
X70048993Y-62047457D01*
X70048993Y-62047457D02*
X69991850Y-62276028D01*
X69991850Y-62276028D02*
X69991850Y-62447457D01*
X69991850Y-62447457D02*
X70048993Y-62676028D01*
X70048993Y-62676028D02*
X70106136Y-62790314D01*
X70106136Y-62790314D02*
X70220421Y-62904600D01*
X70220421Y-62904600D02*
X70391850Y-62961742D01*
X70391850Y-62961742D02*
X70677564Y-62961742D01*
X69477564Y-62504600D02*
X68563279Y-62504600D01*
X67991850Y-62961742D02*
X67991850Y-61761742D01*
X67991850Y-61761742D02*
X67534707Y-61761742D01*
X67534707Y-61761742D02*
X67420422Y-61818885D01*
X67420422Y-61818885D02*
X67363279Y-61876028D01*
X67363279Y-61876028D02*
X67306136Y-61990314D01*
X67306136Y-61990314D02*
X67306136Y-62161742D01*
X67306136Y-62161742D02*
X67363279Y-62276028D01*
X67363279Y-62276028D02*
X67420422Y-62333171D01*
X67420422Y-62333171D02*
X67534707Y-62390314D01*
X67534707Y-62390314D02*
X67991850Y-62390314D01*
X66906136Y-61761742D02*
X66620422Y-62961742D01*
X66620422Y-62961742D02*
X66391850Y-62104600D01*
X66391850Y-62104600D02*
X66163279Y-62961742D01*
X66163279Y-62961742D02*
X65877565Y-61761742D01*
X65420421Y-62961742D02*
X65420421Y-61761742D01*
X65420421Y-61761742D02*
X65020421Y-62618885D01*
X65020421Y-62618885D02*
X64620421Y-61761742D01*
X64620421Y-61761742D02*
X64620421Y-62961742D01*
X64416279Y-55087742D02*
X64987707Y-55087742D01*
X64987707Y-55087742D02*
X64987707Y-53887742D01*
X64016278Y-54459171D02*
X63616278Y-54459171D01*
X63444850Y-55087742D02*
X64016278Y-55087742D01*
X64016278Y-55087742D02*
X64016278Y-53887742D01*
X64016278Y-53887742D02*
X63444850Y-53887742D01*
X62930564Y-55087742D02*
X62930564Y-53887742D01*
X62930564Y-53887742D02*
X62644850Y-53887742D01*
X62644850Y-53887742D02*
X62473421Y-53944885D01*
X62473421Y-53944885D02*
X62359136Y-54059171D01*
X62359136Y-54059171D02*
X62301993Y-54173457D01*
X62301993Y-54173457D02*
X62244850Y-54402028D01*
X62244850Y-54402028D02*
X62244850Y-54573457D01*
X62244850Y-54573457D02*
X62301993Y-54802028D01*
X62301993Y-54802028D02*
X62359136Y-54916314D01*
X62359136Y-54916314D02*
X62473421Y-55030600D01*
X62473421Y-55030600D02*
X62644850Y-55087742D01*
X62644850Y-55087742D02*
X62930564Y-55087742D01*
X61730564Y-54630600D02*
X60816279Y-54630600D01*
X61273421Y-55087742D02*
X61273421Y-54173457D01*
X64232136Y-58897885D02*
X64346422Y-58840742D01*
X64346422Y-58840742D02*
X64517850Y-58840742D01*
X64517850Y-58840742D02*
X64689279Y-58897885D01*
X64689279Y-58897885D02*
X64803564Y-59012171D01*
X64803564Y-59012171D02*
X64860707Y-59126457D01*
X64860707Y-59126457D02*
X64917850Y-59355028D01*
X64917850Y-59355028D02*
X64917850Y-59526457D01*
X64917850Y-59526457D02*
X64860707Y-59755028D01*
X64860707Y-59755028D02*
X64803564Y-59869314D01*
X64803564Y-59869314D02*
X64689279Y-59983600D01*
X64689279Y-59983600D02*
X64517850Y-60040742D01*
X64517850Y-60040742D02*
X64403564Y-60040742D01*
X64403564Y-60040742D02*
X64232136Y-59983600D01*
X64232136Y-59983600D02*
X64174993Y-59926457D01*
X64174993Y-59926457D02*
X64174993Y-59526457D01*
X64174993Y-59526457D02*
X64403564Y-59526457D01*
X63660707Y-60040742D02*
X63660707Y-58840742D01*
X63660707Y-58840742D02*
X62974993Y-60040742D01*
X62974993Y-60040742D02*
X62974993Y-58840742D01*
X62403564Y-60040742D02*
X62403564Y-58840742D01*
X62403564Y-58840742D02*
X62117850Y-58840742D01*
X62117850Y-58840742D02*
X61946421Y-58897885D01*
X61946421Y-58897885D02*
X61832136Y-59012171D01*
X61832136Y-59012171D02*
X61774993Y-59126457D01*
X61774993Y-59126457D02*
X61717850Y-59355028D01*
X61717850Y-59355028D02*
X61717850Y-59526457D01*
X61717850Y-59526457D02*
X61774993Y-59755028D01*
X61774993Y-59755028D02*
X61832136Y-59869314D01*
X61832136Y-59869314D02*
X61946421Y-59983600D01*
X61946421Y-59983600D02*
X62117850Y-60040742D01*
X62117850Y-60040742D02*
X62403564Y-60040742D01*
X153639742Y-49998006D02*
X153068314Y-49598006D01*
X153639742Y-49312292D02*
X152439742Y-49312292D01*
X152439742Y-49312292D02*
X152439742Y-49769435D01*
X152439742Y-49769435D02*
X152496885Y-49883720D01*
X152496885Y-49883720D02*
X152554028Y-49940863D01*
X152554028Y-49940863D02*
X152668314Y-49998006D01*
X152668314Y-49998006D02*
X152839742Y-49998006D01*
X152839742Y-49998006D02*
X152954028Y-49940863D01*
X152954028Y-49940863D02*
X153011171Y-49883720D01*
X153011171Y-49883720D02*
X153068314Y-49769435D01*
X153068314Y-49769435D02*
X153068314Y-49312292D01*
X153582600Y-50455149D02*
X153639742Y-50626578D01*
X153639742Y-50626578D02*
X153639742Y-50912292D01*
X153639742Y-50912292D02*
X153582600Y-51026578D01*
X153582600Y-51026578D02*
X153525457Y-51083720D01*
X153525457Y-51083720D02*
X153411171Y-51140863D01*
X153411171Y-51140863D02*
X153296885Y-51140863D01*
X153296885Y-51140863D02*
X153182600Y-51083720D01*
X153182600Y-51083720D02*
X153125457Y-51026578D01*
X153125457Y-51026578D02*
X153068314Y-50912292D01*
X153068314Y-50912292D02*
X153011171Y-50683720D01*
X153011171Y-50683720D02*
X152954028Y-50569435D01*
X152954028Y-50569435D02*
X152896885Y-50512292D01*
X152896885Y-50512292D02*
X152782600Y-50455149D01*
X152782600Y-50455149D02*
X152668314Y-50455149D01*
X152668314Y-50455149D02*
X152554028Y-50512292D01*
X152554028Y-50512292D02*
X152496885Y-50569435D01*
X152496885Y-50569435D02*
X152439742Y-50683720D01*
X152439742Y-50683720D02*
X152439742Y-50969435D01*
X152439742Y-50969435D02*
X152496885Y-51140863D01*
X152839742Y-52169435D02*
X153639742Y-52169435D01*
X152382600Y-51883720D02*
X153239742Y-51598006D01*
X153239742Y-51598006D02*
X153239742Y-52340863D01*
X152954028Y-52969434D02*
X152896885Y-52855149D01*
X152896885Y-52855149D02*
X152839742Y-52798006D01*
X152839742Y-52798006D02*
X152725457Y-52740863D01*
X152725457Y-52740863D02*
X152668314Y-52740863D01*
X152668314Y-52740863D02*
X152554028Y-52798006D01*
X152554028Y-52798006D02*
X152496885Y-52855149D01*
X152496885Y-52855149D02*
X152439742Y-52969434D01*
X152439742Y-52969434D02*
X152439742Y-53198006D01*
X152439742Y-53198006D02*
X152496885Y-53312292D01*
X152496885Y-53312292D02*
X152554028Y-53369434D01*
X152554028Y-53369434D02*
X152668314Y-53426577D01*
X152668314Y-53426577D02*
X152725457Y-53426577D01*
X152725457Y-53426577D02*
X152839742Y-53369434D01*
X152839742Y-53369434D02*
X152896885Y-53312292D01*
X152896885Y-53312292D02*
X152954028Y-53198006D01*
X152954028Y-53198006D02*
X152954028Y-52969434D01*
X152954028Y-52969434D02*
X153011171Y-52855149D01*
X153011171Y-52855149D02*
X153068314Y-52798006D01*
X153068314Y-52798006D02*
X153182600Y-52740863D01*
X153182600Y-52740863D02*
X153411171Y-52740863D01*
X153411171Y-52740863D02*
X153525457Y-52798006D01*
X153525457Y-52798006D02*
X153582600Y-52855149D01*
X153582600Y-52855149D02*
X153639742Y-52969434D01*
X153639742Y-52969434D02*
X153639742Y-53198006D01*
X153639742Y-53198006D02*
X153582600Y-53312292D01*
X153582600Y-53312292D02*
X153525457Y-53369434D01*
X153525457Y-53369434D02*
X153411171Y-53426577D01*
X153411171Y-53426577D02*
X153182600Y-53426577D01*
X153182600Y-53426577D02*
X153068314Y-53369434D01*
X153068314Y-53369434D02*
X153011171Y-53312292D01*
X153011171Y-53312292D02*
X152954028Y-53198006D01*
X152439742Y-54512291D02*
X152439742Y-53940863D01*
X152439742Y-53940863D02*
X153011171Y-53883720D01*
X153011171Y-53883720D02*
X152954028Y-53940863D01*
X152954028Y-53940863D02*
X152896885Y-54055149D01*
X152896885Y-54055149D02*
X152896885Y-54340863D01*
X152896885Y-54340863D02*
X152954028Y-54455149D01*
X152954028Y-54455149D02*
X153011171Y-54512291D01*
X153011171Y-54512291D02*
X153125457Y-54569434D01*
X153125457Y-54569434D02*
X153411171Y-54569434D01*
X153411171Y-54569434D02*
X153525457Y-54512291D01*
X153525457Y-54512291D02*
X153582600Y-54455149D01*
X153582600Y-54455149D02*
X153639742Y-54340863D01*
X153639742Y-54340863D02*
X153639742Y-54055149D01*
X153639742Y-54055149D02*
X153582600Y-53940863D01*
X153582600Y-53940863D02*
X153525457Y-53883720D01*
X152382600Y-55940863D02*
X153925457Y-54912291D01*
X153639742Y-56340863D02*
X152439742Y-56340863D01*
X152439742Y-56340863D02*
X152439742Y-56626577D01*
X152439742Y-56626577D02*
X152496885Y-56798006D01*
X152496885Y-56798006D02*
X152611171Y-56912291D01*
X152611171Y-56912291D02*
X152725457Y-56969434D01*
X152725457Y-56969434D02*
X152954028Y-57026577D01*
X152954028Y-57026577D02*
X153125457Y-57026577D01*
X153125457Y-57026577D02*
X153354028Y-56969434D01*
X153354028Y-56969434D02*
X153468314Y-56912291D01*
X153468314Y-56912291D02*
X153582600Y-56798006D01*
X153582600Y-56798006D02*
X153639742Y-56626577D01*
X153639742Y-56626577D02*
X153639742Y-56340863D01*
X153639742Y-57540863D02*
X152439742Y-57540863D01*
X152439742Y-57540863D02*
X153296885Y-57940863D01*
X153296885Y-57940863D02*
X152439742Y-58340863D01*
X152439742Y-58340863D02*
X153639742Y-58340863D01*
X152439742Y-58798006D02*
X153639742Y-59598006D01*
X152439742Y-59598006D02*
X153639742Y-58798006D01*
X65495707Y-75280742D02*
X65495707Y-74080742D01*
X65495707Y-74080742D02*
X65209993Y-74080742D01*
X65209993Y-74080742D02*
X65038564Y-74137885D01*
X65038564Y-74137885D02*
X64924279Y-74252171D01*
X64924279Y-74252171D02*
X64867136Y-74366457D01*
X64867136Y-74366457D02*
X64809993Y-74595028D01*
X64809993Y-74595028D02*
X64809993Y-74766457D01*
X64809993Y-74766457D02*
X64867136Y-74995028D01*
X64867136Y-74995028D02*
X64924279Y-75109314D01*
X64924279Y-75109314D02*
X65038564Y-75223600D01*
X65038564Y-75223600D02*
X65209993Y-75280742D01*
X65209993Y-75280742D02*
X65495707Y-75280742D01*
X63781422Y-75280742D02*
X63781422Y-74652171D01*
X63781422Y-74652171D02*
X63838564Y-74537885D01*
X63838564Y-74537885D02*
X63952850Y-74480742D01*
X63952850Y-74480742D02*
X64181422Y-74480742D01*
X64181422Y-74480742D02*
X64295707Y-74537885D01*
X63781422Y-75223600D02*
X63895707Y-75280742D01*
X63895707Y-75280742D02*
X64181422Y-75280742D01*
X64181422Y-75280742D02*
X64295707Y-75223600D01*
X64295707Y-75223600D02*
X64352850Y-75109314D01*
X64352850Y-75109314D02*
X64352850Y-74995028D01*
X64352850Y-74995028D02*
X64295707Y-74880742D01*
X64295707Y-74880742D02*
X64181422Y-74823600D01*
X64181422Y-74823600D02*
X63895707Y-74823600D01*
X63895707Y-74823600D02*
X63781422Y-74766457D01*
X63381422Y-74480742D02*
X62924279Y-74480742D01*
X63209993Y-74080742D02*
X63209993Y-75109314D01*
X63209993Y-75109314D02*
X63152850Y-75223600D01*
X63152850Y-75223600D02*
X63038565Y-75280742D01*
X63038565Y-75280742D02*
X62924279Y-75280742D01*
X62009994Y-75280742D02*
X62009994Y-74652171D01*
X62009994Y-74652171D02*
X62067136Y-74537885D01*
X62067136Y-74537885D02*
X62181422Y-74480742D01*
X62181422Y-74480742D02*
X62409994Y-74480742D01*
X62409994Y-74480742D02*
X62524279Y-74537885D01*
X62009994Y-75223600D02*
X62124279Y-75280742D01*
X62124279Y-75280742D02*
X62409994Y-75280742D01*
X62409994Y-75280742D02*
X62524279Y-75223600D01*
X62524279Y-75223600D02*
X62581422Y-75109314D01*
X62581422Y-75109314D02*
X62581422Y-74995028D01*
X62581422Y-74995028D02*
X62524279Y-74880742D01*
X62524279Y-74880742D02*
X62409994Y-74823600D01*
X62409994Y-74823600D02*
X62124279Y-74823600D01*
X62124279Y-74823600D02*
X62009994Y-74766457D01*
X61209994Y-74080742D02*
X61095708Y-74080742D01*
X61095708Y-74080742D02*
X60981422Y-74137885D01*
X60981422Y-74137885D02*
X60924280Y-74195028D01*
X60924280Y-74195028D02*
X60867137Y-74309314D01*
X60867137Y-74309314D02*
X60809994Y-74537885D01*
X60809994Y-74537885D02*
X60809994Y-74823600D01*
X60809994Y-74823600D02*
X60867137Y-75052171D01*
X60867137Y-75052171D02*
X60924280Y-75166457D01*
X60924280Y-75166457D02*
X60981422Y-75223600D01*
X60981422Y-75223600D02*
X61095708Y-75280742D01*
X61095708Y-75280742D02*
X61209994Y-75280742D01*
X61209994Y-75280742D02*
X61324280Y-75223600D01*
X61324280Y-75223600D02*
X61381422Y-75166457D01*
X61381422Y-75166457D02*
X61438565Y-75052171D01*
X61438565Y-75052171D02*
X61495708Y-74823600D01*
X61495708Y-74823600D02*
X61495708Y-74537885D01*
X61495708Y-74537885D02*
X61438565Y-74309314D01*
X61438565Y-74309314D02*
X61381422Y-74195028D01*
X61381422Y-74195028D02*
X61324280Y-74137885D01*
X61324280Y-74137885D02*
X61209994Y-74080742D01*
X153011171Y-66838292D02*
X153011171Y-67238292D01*
X153639742Y-67409720D02*
X153639742Y-66838292D01*
X153639742Y-66838292D02*
X152439742Y-66838292D01*
X152439742Y-66838292D02*
X152439742Y-67409720D01*
X152839742Y-67752577D02*
X152839742Y-68209720D01*
X152439742Y-67924006D02*
X153468314Y-67924006D01*
X153468314Y-67924006D02*
X153582600Y-67981149D01*
X153582600Y-67981149D02*
X153639742Y-68095434D01*
X153639742Y-68095434D02*
X153639742Y-68209720D01*
X153639742Y-68609720D02*
X152439742Y-68609720D01*
X153639742Y-69124006D02*
X153011171Y-69124006D01*
X153011171Y-69124006D02*
X152896885Y-69066863D01*
X152896885Y-69066863D02*
X152839742Y-68952577D01*
X152839742Y-68952577D02*
X152839742Y-68781148D01*
X152839742Y-68781148D02*
X152896885Y-68666863D01*
X152896885Y-68666863D02*
X152954028Y-68609720D01*
X153582600Y-70152577D02*
X153639742Y-70038291D01*
X153639742Y-70038291D02*
X153639742Y-69809720D01*
X153639742Y-69809720D02*
X153582600Y-69695434D01*
X153582600Y-69695434D02*
X153468314Y-69638291D01*
X153468314Y-69638291D02*
X153011171Y-69638291D01*
X153011171Y-69638291D02*
X152896885Y-69695434D01*
X152896885Y-69695434D02*
X152839742Y-69809720D01*
X152839742Y-69809720D02*
X152839742Y-70038291D01*
X152839742Y-70038291D02*
X152896885Y-70152577D01*
X152896885Y-70152577D02*
X153011171Y-70209720D01*
X153011171Y-70209720D02*
X153125457Y-70209720D01*
X153125457Y-70209720D02*
X153239742Y-69638291D01*
X153639742Y-70724005D02*
X152839742Y-70724005D01*
X153068314Y-70724005D02*
X152954028Y-70781148D01*
X152954028Y-70781148D02*
X152896885Y-70838291D01*
X152896885Y-70838291D02*
X152839742Y-70952576D01*
X152839742Y-70952576D02*
X152839742Y-71066862D01*
X152839742Y-71466862D02*
X153639742Y-71466862D01*
X152954028Y-71466862D02*
X152896885Y-71524005D01*
X152896885Y-71524005D02*
X152839742Y-71638290D01*
X152839742Y-71638290D02*
X152839742Y-71809719D01*
X152839742Y-71809719D02*
X152896885Y-71924005D01*
X152896885Y-71924005D02*
X153011171Y-71981148D01*
X153011171Y-71981148D02*
X153639742Y-71981148D01*
X153582600Y-73009719D02*
X153639742Y-72895433D01*
X153639742Y-72895433D02*
X153639742Y-72666862D01*
X153639742Y-72666862D02*
X153582600Y-72552576D01*
X153582600Y-72552576D02*
X153468314Y-72495433D01*
X153468314Y-72495433D02*
X153011171Y-72495433D01*
X153011171Y-72495433D02*
X152896885Y-72552576D01*
X152896885Y-72552576D02*
X152839742Y-72666862D01*
X152839742Y-72666862D02*
X152839742Y-72895433D01*
X152839742Y-72895433D02*
X152896885Y-73009719D01*
X152896885Y-73009719D02*
X153011171Y-73066862D01*
X153011171Y-73066862D02*
X153125457Y-73066862D01*
X153125457Y-73066862D02*
X153239742Y-72495433D01*
X152839742Y-73409718D02*
X152839742Y-73866861D01*
X152439742Y-73581147D02*
X153468314Y-73581147D01*
X153468314Y-73581147D02*
X153582600Y-73638290D01*
X153582600Y-73638290D02*
X153639742Y-73752575D01*
X153639742Y-73752575D02*
X153639742Y-73866861D01*
X81288136Y-51855742D02*
X80602422Y-51855742D01*
X80945279Y-53055742D02*
X80945279Y-51855742D01*
X80316707Y-51855742D02*
X79516707Y-53055742D01*
X79516707Y-51855742D02*
X80316707Y-53055742D01*
X146902707Y-54579742D02*
X146902707Y-53379742D01*
X146902707Y-53379742D02*
X146616993Y-53379742D01*
X146616993Y-53379742D02*
X146445564Y-53436885D01*
X146445564Y-53436885D02*
X146331279Y-53551171D01*
X146331279Y-53551171D02*
X146274136Y-53665457D01*
X146274136Y-53665457D02*
X146216993Y-53894028D01*
X146216993Y-53894028D02*
X146216993Y-54065457D01*
X146216993Y-54065457D02*
X146274136Y-54294028D01*
X146274136Y-54294028D02*
X146331279Y-54408314D01*
X146331279Y-54408314D02*
X146445564Y-54522600D01*
X146445564Y-54522600D02*
X146616993Y-54579742D01*
X146616993Y-54579742D02*
X146902707Y-54579742D01*
X145702707Y-54122600D02*
X144788422Y-54122600D01*
X145245564Y-54579742D02*
X145245564Y-53665457D01*
X84478828Y-54935707D02*
X84478828Y-55335707D01*
X83850257Y-55335707D02*
X85050257Y-55335707D01*
X85050257Y-55335707D02*
X85050257Y-54764279D01*
X85050257Y-54478565D02*
X85050257Y-53792851D01*
X83850257Y-54135708D02*
X85050257Y-54135708D01*
X83850257Y-53392850D02*
X85050257Y-53392850D01*
X85050257Y-53392850D02*
X85050257Y-53107136D01*
X85050257Y-53107136D02*
X84993114Y-52935707D01*
X84993114Y-52935707D02*
X84878828Y-52821422D01*
X84878828Y-52821422D02*
X84764542Y-52764279D01*
X84764542Y-52764279D02*
X84535971Y-52707136D01*
X84535971Y-52707136D02*
X84364542Y-52707136D01*
X84364542Y-52707136D02*
X84135971Y-52764279D01*
X84135971Y-52764279D02*
X84021685Y-52821422D01*
X84021685Y-52821422D02*
X83907400Y-52935707D01*
X83907400Y-52935707D02*
X83850257Y-53107136D01*
X83850257Y-53107136D02*
X83850257Y-53392850D01*
X83850257Y-52192850D02*
X85050257Y-52192850D01*
X83964542Y-50021421D02*
X83907400Y-50078564D01*
X83907400Y-50078564D02*
X83850257Y-50249992D01*
X83850257Y-50249992D02*
X83850257Y-50364278D01*
X83850257Y-50364278D02*
X83907400Y-50535707D01*
X83907400Y-50535707D02*
X84021685Y-50649992D01*
X84021685Y-50649992D02*
X84135971Y-50707135D01*
X84135971Y-50707135D02*
X84364542Y-50764278D01*
X84364542Y-50764278D02*
X84535971Y-50764278D01*
X84535971Y-50764278D02*
X84764542Y-50707135D01*
X84764542Y-50707135D02*
X84878828Y-50649992D01*
X84878828Y-50649992D02*
X84993114Y-50535707D01*
X84993114Y-50535707D02*
X85050257Y-50364278D01*
X85050257Y-50364278D02*
X85050257Y-50249992D01*
X85050257Y-50249992D02*
X84993114Y-50078564D01*
X84993114Y-50078564D02*
X84935971Y-50021421D01*
X83850257Y-49335707D02*
X83907400Y-49449992D01*
X83907400Y-49449992D02*
X83964542Y-49507135D01*
X83964542Y-49507135D02*
X84078828Y-49564278D01*
X84078828Y-49564278D02*
X84421685Y-49564278D01*
X84421685Y-49564278D02*
X84535971Y-49507135D01*
X84535971Y-49507135D02*
X84593114Y-49449992D01*
X84593114Y-49449992D02*
X84650257Y-49335707D01*
X84650257Y-49335707D02*
X84650257Y-49164278D01*
X84650257Y-49164278D02*
X84593114Y-49049992D01*
X84593114Y-49049992D02*
X84535971Y-48992850D01*
X84535971Y-48992850D02*
X84421685Y-48935707D01*
X84421685Y-48935707D02*
X84078828Y-48935707D01*
X84078828Y-48935707D02*
X83964542Y-48992850D01*
X83964542Y-48992850D02*
X83907400Y-49049992D01*
X83907400Y-49049992D02*
X83850257Y-49164278D01*
X83850257Y-49164278D02*
X83850257Y-49335707D01*
X84650257Y-48421421D02*
X83850257Y-48421421D01*
X84535971Y-48421421D02*
X84593114Y-48364278D01*
X84593114Y-48364278D02*
X84650257Y-48249993D01*
X84650257Y-48249993D02*
X84650257Y-48078564D01*
X84650257Y-48078564D02*
X84593114Y-47964278D01*
X84593114Y-47964278D02*
X84478828Y-47907136D01*
X84478828Y-47907136D02*
X83850257Y-47907136D01*
X83907400Y-47392850D02*
X83850257Y-47278564D01*
X83850257Y-47278564D02*
X83850257Y-47049993D01*
X83850257Y-47049993D02*
X83907400Y-46935707D01*
X83907400Y-46935707D02*
X84021685Y-46878564D01*
X84021685Y-46878564D02*
X84078828Y-46878564D01*
X84078828Y-46878564D02*
X84193114Y-46935707D01*
X84193114Y-46935707D02*
X84250257Y-47049993D01*
X84250257Y-47049993D02*
X84250257Y-47221422D01*
X84250257Y-47221422D02*
X84307400Y-47335707D01*
X84307400Y-47335707D02*
X84421685Y-47392850D01*
X84421685Y-47392850D02*
X84478828Y-47392850D01*
X84478828Y-47392850D02*
X84593114Y-47335707D01*
X84593114Y-47335707D02*
X84650257Y-47221422D01*
X84650257Y-47221422D02*
X84650257Y-47049993D01*
X84650257Y-47049993D02*
X84593114Y-46935707D01*
X83850257Y-46192850D02*
X83907400Y-46307135D01*
X83907400Y-46307135D02*
X83964542Y-46364278D01*
X83964542Y-46364278D02*
X84078828Y-46421421D01*
X84078828Y-46421421D02*
X84421685Y-46421421D01*
X84421685Y-46421421D02*
X84535971Y-46364278D01*
X84535971Y-46364278D02*
X84593114Y-46307135D01*
X84593114Y-46307135D02*
X84650257Y-46192850D01*
X84650257Y-46192850D02*
X84650257Y-46021421D01*
X84650257Y-46021421D02*
X84593114Y-45907135D01*
X84593114Y-45907135D02*
X84535971Y-45849993D01*
X84535971Y-45849993D02*
X84421685Y-45792850D01*
X84421685Y-45792850D02*
X84078828Y-45792850D01*
X84078828Y-45792850D02*
X83964542Y-45849993D01*
X83964542Y-45849993D02*
X83907400Y-45907135D01*
X83907400Y-45907135D02*
X83850257Y-46021421D01*
X83850257Y-46021421D02*
X83850257Y-46192850D01*
X83850257Y-45107136D02*
X83907400Y-45221421D01*
X83907400Y-45221421D02*
X84021685Y-45278564D01*
X84021685Y-45278564D02*
X85050257Y-45278564D01*
X83907400Y-44192850D02*
X83850257Y-44307136D01*
X83850257Y-44307136D02*
X83850257Y-44535708D01*
X83850257Y-44535708D02*
X83907400Y-44649993D01*
X83907400Y-44649993D02*
X84021685Y-44707136D01*
X84021685Y-44707136D02*
X84478828Y-44707136D01*
X84478828Y-44707136D02*
X84593114Y-44649993D01*
X84593114Y-44649993D02*
X84650257Y-44535708D01*
X84650257Y-44535708D02*
X84650257Y-44307136D01*
X84650257Y-44307136D02*
X84593114Y-44192850D01*
X84593114Y-44192850D02*
X84478828Y-44135708D01*
X84478828Y-44135708D02*
X84364542Y-44135708D01*
X84364542Y-44135708D02*
X84250257Y-44707136D01*
X80430993Y-50388742D02*
X80830993Y-49817314D01*
X81116707Y-50388742D02*
X81116707Y-49188742D01*
X81116707Y-49188742D02*
X80659564Y-49188742D01*
X80659564Y-49188742D02*
X80545279Y-49245885D01*
X80545279Y-49245885D02*
X80488136Y-49303028D01*
X80488136Y-49303028D02*
X80430993Y-49417314D01*
X80430993Y-49417314D02*
X80430993Y-49588742D01*
X80430993Y-49588742D02*
X80488136Y-49703028D01*
X80488136Y-49703028D02*
X80545279Y-49760171D01*
X80545279Y-49760171D02*
X80659564Y-49817314D01*
X80659564Y-49817314D02*
X81116707Y-49817314D01*
X80030993Y-49188742D02*
X79230993Y-50388742D01*
X79230993Y-49188742D02*
X80030993Y-50388742D01*
X146401136Y-57246885D02*
X146515422Y-57189742D01*
X146515422Y-57189742D02*
X146686850Y-57189742D01*
X146686850Y-57189742D02*
X146858279Y-57246885D01*
X146858279Y-57246885D02*
X146972564Y-57361171D01*
X146972564Y-57361171D02*
X147029707Y-57475457D01*
X147029707Y-57475457D02*
X147086850Y-57704028D01*
X147086850Y-57704028D02*
X147086850Y-57875457D01*
X147086850Y-57875457D02*
X147029707Y-58104028D01*
X147029707Y-58104028D02*
X146972564Y-58218314D01*
X146972564Y-58218314D02*
X146858279Y-58332600D01*
X146858279Y-58332600D02*
X146686850Y-58389742D01*
X146686850Y-58389742D02*
X146572564Y-58389742D01*
X146572564Y-58389742D02*
X146401136Y-58332600D01*
X146401136Y-58332600D02*
X146343993Y-58275457D01*
X146343993Y-58275457D02*
X146343993Y-57875457D01*
X146343993Y-57875457D02*
X146572564Y-57875457D01*
X145829707Y-58389742D02*
X145829707Y-57189742D01*
X145829707Y-57189742D02*
X145143993Y-58389742D01*
X145143993Y-58389742D02*
X145143993Y-57189742D01*
X144572564Y-58389742D02*
X144572564Y-57189742D01*
X144572564Y-57189742D02*
X144286850Y-57189742D01*
X144286850Y-57189742D02*
X144115421Y-57246885D01*
X144115421Y-57246885D02*
X144001136Y-57361171D01*
X144001136Y-57361171D02*
X143943993Y-57475457D01*
X143943993Y-57475457D02*
X143886850Y-57704028D01*
X143886850Y-57704028D02*
X143886850Y-57875457D01*
X143886850Y-57875457D02*
X143943993Y-58104028D01*
X143943993Y-58104028D02*
X144001136Y-58218314D01*
X144001136Y-58218314D02*
X144115421Y-58332600D01*
X144115421Y-58332600D02*
X144286850Y-58389742D01*
X144286850Y-58389742D02*
X144572564Y-58389742D01*
D10*
X78599600Y-75012060D02*
X78523409Y-74840632D01*
X78523409Y-74840632D02*
X78523409Y-74554917D01*
X78523409Y-74554917D02*
X78599600Y-74440632D01*
X78599600Y-74440632D02*
X78675790Y-74383489D01*
X78675790Y-74383489D02*
X78828171Y-74326346D01*
X78828171Y-74326346D02*
X78980552Y-74326346D01*
X78980552Y-74326346D02*
X79132933Y-74383489D01*
X79132933Y-74383489D02*
X79209123Y-74440632D01*
X79209123Y-74440632D02*
X79285314Y-74554917D01*
X79285314Y-74554917D02*
X79361504Y-74783489D01*
X79361504Y-74783489D02*
X79437695Y-74897774D01*
X79437695Y-74897774D02*
X79513885Y-74954917D01*
X79513885Y-74954917D02*
X79666266Y-75012060D01*
X79666266Y-75012060D02*
X79818647Y-75012060D01*
X79818647Y-75012060D02*
X79971028Y-74954917D01*
X79971028Y-74954917D02*
X80047219Y-74897774D01*
X80047219Y-74897774D02*
X80123409Y-74783489D01*
X80123409Y-74783489D02*
X80123409Y-74497774D01*
X80123409Y-74497774D02*
X80047219Y-74326346D01*
X80123409Y-73812060D02*
X78828171Y-73812060D01*
X78828171Y-73812060D02*
X78675790Y-73754917D01*
X78675790Y-73754917D02*
X78599600Y-73697775D01*
X78599600Y-73697775D02*
X78523409Y-73583489D01*
X78523409Y-73583489D02*
X78523409Y-73354917D01*
X78523409Y-73354917D02*
X78599600Y-73240632D01*
X78599600Y-73240632D02*
X78675790Y-73183489D01*
X78675790Y-73183489D02*
X78828171Y-73126346D01*
X78828171Y-73126346D02*
X80123409Y-73126346D01*
X78523409Y-72554917D02*
X80123409Y-72554917D01*
X80123409Y-72554917D02*
X80123409Y-72097774D01*
X80123409Y-72097774D02*
X80047219Y-71983489D01*
X80047219Y-71983489D02*
X79971028Y-71926346D01*
X79971028Y-71926346D02*
X79818647Y-71869203D01*
X79818647Y-71869203D02*
X79590076Y-71869203D01*
X79590076Y-71869203D02*
X79437695Y-71926346D01*
X79437695Y-71926346D02*
X79361504Y-71983489D01*
X79361504Y-71983489D02*
X79285314Y-72097774D01*
X79285314Y-72097774D02*
X79285314Y-72554917D01*
X78523409Y-71354917D02*
X80123409Y-71354917D01*
X80123409Y-71354917D02*
X80123409Y-70897774D01*
X80123409Y-70897774D02*
X80047219Y-70783489D01*
X80047219Y-70783489D02*
X79971028Y-70726346D01*
X79971028Y-70726346D02*
X79818647Y-70669203D01*
X79818647Y-70669203D02*
X79590076Y-70669203D01*
X79590076Y-70669203D02*
X79437695Y-70726346D01*
X79437695Y-70726346D02*
X79361504Y-70783489D01*
X79361504Y-70783489D02*
X79285314Y-70897774D01*
X79285314Y-70897774D02*
X79285314Y-71354917D01*
X78523409Y-69583489D02*
X78523409Y-70154917D01*
X78523409Y-70154917D02*
X80123409Y-70154917D01*
X79285314Y-68954917D02*
X78523409Y-68954917D01*
X80123409Y-69354917D02*
X79285314Y-68954917D01*
X79285314Y-68954917D02*
X80123409Y-68554917D01*
X78371028Y-68440632D02*
X78371028Y-67526346D01*
X79361504Y-66840631D02*
X79361504Y-67240631D01*
X78523409Y-67240631D02*
X80123409Y-67240631D01*
X80123409Y-67240631D02*
X80123409Y-66669203D01*
X78523409Y-65526346D02*
X79285314Y-65926346D01*
X78523409Y-66212060D02*
X80123409Y-66212060D01*
X80123409Y-66212060D02*
X80123409Y-65754917D01*
X80123409Y-65754917D02*
X80047219Y-65640632D01*
X80047219Y-65640632D02*
X79971028Y-65583489D01*
X79971028Y-65583489D02*
X79818647Y-65526346D01*
X79818647Y-65526346D02*
X79590076Y-65526346D01*
X79590076Y-65526346D02*
X79437695Y-65583489D01*
X79437695Y-65583489D02*
X79361504Y-65640632D01*
X79361504Y-65640632D02*
X79285314Y-65754917D01*
X79285314Y-65754917D02*
X79285314Y-66212060D01*
X80123409Y-64783489D02*
X80123409Y-64554917D01*
X80123409Y-64554917D02*
X80047219Y-64440632D01*
X80047219Y-64440632D02*
X79894838Y-64326346D01*
X79894838Y-64326346D02*
X79590076Y-64269203D01*
X79590076Y-64269203D02*
X79056742Y-64269203D01*
X79056742Y-64269203D02*
X78751980Y-64326346D01*
X78751980Y-64326346D02*
X78599600Y-64440632D01*
X78599600Y-64440632D02*
X78523409Y-64554917D01*
X78523409Y-64554917D02*
X78523409Y-64783489D01*
X78523409Y-64783489D02*
X78599600Y-64897775D01*
X78599600Y-64897775D02*
X78751980Y-65012060D01*
X78751980Y-65012060D02*
X79056742Y-65069203D01*
X79056742Y-65069203D02*
X79590076Y-65069203D01*
X79590076Y-65069203D02*
X79894838Y-65012060D01*
X79894838Y-65012060D02*
X80047219Y-64897775D01*
X80047219Y-64897775D02*
X80123409Y-64783489D01*
X78523409Y-63754917D02*
X80123409Y-63754917D01*
X80123409Y-63754917D02*
X78980552Y-63354917D01*
X78980552Y-63354917D02*
X80123409Y-62954917D01*
X80123409Y-62954917D02*
X78523409Y-62954917D01*
X78371028Y-62669203D02*
X78371028Y-61754917D01*
X80123409Y-61469202D02*
X78828171Y-61469202D01*
X78828171Y-61469202D02*
X78675790Y-61412059D01*
X78675790Y-61412059D02*
X78599600Y-61354917D01*
X78599600Y-61354917D02*
X78523409Y-61240631D01*
X78523409Y-61240631D02*
X78523409Y-61012059D01*
X78523409Y-61012059D02*
X78599600Y-60897774D01*
X78599600Y-60897774D02*
X78675790Y-60840631D01*
X78675790Y-60840631D02*
X78828171Y-60783488D01*
X78828171Y-60783488D02*
X80123409Y-60783488D01*
X78599600Y-60269202D02*
X78523409Y-60097774D01*
X78523409Y-60097774D02*
X78523409Y-59812059D01*
X78523409Y-59812059D02*
X78599600Y-59697774D01*
X78599600Y-59697774D02*
X78675790Y-59640631D01*
X78675790Y-59640631D02*
X78828171Y-59583488D01*
X78828171Y-59583488D02*
X78980552Y-59583488D01*
X78980552Y-59583488D02*
X79132933Y-59640631D01*
X79132933Y-59640631D02*
X79209123Y-59697774D01*
X79209123Y-59697774D02*
X79285314Y-59812059D01*
X79285314Y-59812059D02*
X79361504Y-60040631D01*
X79361504Y-60040631D02*
X79437695Y-60154916D01*
X79437695Y-60154916D02*
X79513885Y-60212059D01*
X79513885Y-60212059D02*
X79666266Y-60269202D01*
X79666266Y-60269202D02*
X79818647Y-60269202D01*
X79818647Y-60269202D02*
X79971028Y-60212059D01*
X79971028Y-60212059D02*
X80047219Y-60154916D01*
X80047219Y-60154916D02*
X80123409Y-60040631D01*
X80123409Y-60040631D02*
X80123409Y-59754916D01*
X80123409Y-59754916D02*
X80047219Y-59583488D01*
X79361504Y-58669202D02*
X79285314Y-58497774D01*
X79285314Y-58497774D02*
X79209123Y-58440631D01*
X79209123Y-58440631D02*
X79056742Y-58383488D01*
X79056742Y-58383488D02*
X78828171Y-58383488D01*
X78828171Y-58383488D02*
X78675790Y-58440631D01*
X78675790Y-58440631D02*
X78599600Y-58497774D01*
X78599600Y-58497774D02*
X78523409Y-58612059D01*
X78523409Y-58612059D02*
X78523409Y-59069202D01*
X78523409Y-59069202D02*
X80123409Y-59069202D01*
X80123409Y-59069202D02*
X80123409Y-58669202D01*
X80123409Y-58669202D02*
X80047219Y-58554917D01*
X80047219Y-58554917D02*
X79971028Y-58497774D01*
X79971028Y-58497774D02*
X79818647Y-58440631D01*
X79818647Y-58440631D02*
X79666266Y-58440631D01*
X79666266Y-58440631D02*
X79513885Y-58497774D01*
X79513885Y-58497774D02*
X79437695Y-58554917D01*
X79437695Y-58554917D02*
X79361504Y-58669202D01*
X79361504Y-58669202D02*
X79361504Y-59069202D01*
X82714409Y-67334917D02*
X84314409Y-67334917D01*
X82714409Y-66763488D02*
X84314409Y-66763488D01*
X84314409Y-66763488D02*
X82714409Y-66077774D01*
X82714409Y-66077774D02*
X84314409Y-66077774D01*
X84314409Y-65677774D02*
X84314409Y-64992060D01*
X82714409Y-65334917D02*
X84314409Y-65334917D01*
X82714409Y-64020631D02*
X82714409Y-64592059D01*
X82714409Y-64592059D02*
X84314409Y-64592059D01*
X83552504Y-63620630D02*
X83552504Y-63220630D01*
X82714409Y-63049202D02*
X82714409Y-63620630D01*
X82714409Y-63620630D02*
X84314409Y-63620630D01*
X84314409Y-63620630D02*
X84314409Y-63049202D01*
X82714409Y-62534916D02*
X84314409Y-62534916D01*
X84314409Y-62534916D02*
X84314409Y-62249202D01*
X84314409Y-62249202D02*
X84238219Y-62077773D01*
X84238219Y-62077773D02*
X84085838Y-61963488D01*
X84085838Y-61963488D02*
X83933457Y-61906345D01*
X83933457Y-61906345D02*
X83628695Y-61849202D01*
X83628695Y-61849202D02*
X83400123Y-61849202D01*
X83400123Y-61849202D02*
X83095361Y-61906345D01*
X83095361Y-61906345D02*
X82942980Y-61963488D01*
X82942980Y-61963488D02*
X82790600Y-62077773D01*
X82790600Y-62077773D02*
X82714409Y-62249202D01*
X82714409Y-62249202D02*
X82714409Y-62534916D01*
X83323933Y-61334916D02*
X83323933Y-60420631D01*
X83552504Y-59849202D02*
X83552504Y-59449202D01*
X82714409Y-59277774D02*
X82714409Y-59849202D01*
X82714409Y-59849202D02*
X84314409Y-59849202D01*
X84314409Y-59849202D02*
X84314409Y-59277774D01*
X82714409Y-58763488D02*
X84314409Y-58763488D01*
X84314409Y-58763488D02*
X82714409Y-58077774D01*
X82714409Y-58077774D02*
X84314409Y-58077774D01*
X97204653Y-80531495D02*
X97033225Y-80607685D01*
X97033225Y-80607685D02*
X96976082Y-80683876D01*
X96976082Y-80683876D02*
X96918939Y-80836257D01*
X96918939Y-80836257D02*
X96918939Y-81064828D01*
X96918939Y-81064828D02*
X96976082Y-81217209D01*
X96976082Y-81217209D02*
X97033225Y-81293400D01*
X97033225Y-81293400D02*
X97147510Y-81369590D01*
X97147510Y-81369590D02*
X97604653Y-81369590D01*
X97604653Y-81369590D02*
X97604653Y-79769590D01*
X97604653Y-79769590D02*
X97204653Y-79769590D01*
X97204653Y-79769590D02*
X97090368Y-79845780D01*
X97090368Y-79845780D02*
X97033225Y-79921971D01*
X97033225Y-79921971D02*
X96976082Y-80074352D01*
X96976082Y-80074352D02*
X96976082Y-80226733D01*
X96976082Y-80226733D02*
X97033225Y-80379114D01*
X97033225Y-80379114D02*
X97090368Y-80455304D01*
X97090368Y-80455304D02*
X97204653Y-80531495D01*
X97204653Y-80531495D02*
X97604653Y-80531495D01*
X96404653Y-81369590D02*
X96404653Y-80302923D01*
X96404653Y-80607685D02*
X96347510Y-80455304D01*
X96347510Y-80455304D02*
X96290368Y-80379114D01*
X96290368Y-80379114D02*
X96176082Y-80302923D01*
X96176082Y-80302923D02*
X96061796Y-80302923D01*
X95147511Y-81369590D02*
X95147511Y-79769590D01*
X95147511Y-81293400D02*
X95261796Y-81369590D01*
X95261796Y-81369590D02*
X95490368Y-81369590D01*
X95490368Y-81369590D02*
X95604653Y-81293400D01*
X95604653Y-81293400D02*
X95661796Y-81217209D01*
X95661796Y-81217209D02*
X95718939Y-81064828D01*
X95718939Y-81064828D02*
X95718939Y-80607685D01*
X95718939Y-80607685D02*
X95661796Y-80455304D01*
X95661796Y-80455304D02*
X95604653Y-80379114D01*
X95604653Y-80379114D02*
X95490368Y-80302923D01*
X95490368Y-80302923D02*
X95261796Y-80302923D01*
X95261796Y-80302923D02*
X95147511Y-80379114D01*
X94004654Y-81369590D02*
X94576082Y-81369590D01*
X94576082Y-81369590D02*
X94576082Y-79769590D01*
X93604653Y-80531495D02*
X93204653Y-80531495D01*
X93033225Y-81369590D02*
X93604653Y-81369590D01*
X93604653Y-81369590D02*
X93604653Y-79769590D01*
X93604653Y-79769590D02*
X93033225Y-79769590D01*
X92518939Y-81369590D02*
X92518939Y-79769590D01*
X92518939Y-79769590D02*
X92233225Y-79769590D01*
X92233225Y-79769590D02*
X92061796Y-79845780D01*
X92061796Y-79845780D02*
X91947511Y-79998161D01*
X91947511Y-79998161D02*
X91890368Y-80150542D01*
X91890368Y-80150542D02*
X91833225Y-80455304D01*
X91833225Y-80455304D02*
X91833225Y-80683876D01*
X91833225Y-80683876D02*
X91890368Y-80988638D01*
X91890368Y-80988638D02*
X91947511Y-81141019D01*
X91947511Y-81141019D02*
X92061796Y-81293400D01*
X92061796Y-81293400D02*
X92233225Y-81369590D01*
X92233225Y-81369590D02*
X92518939Y-81369590D01*
X90404653Y-79769590D02*
X90404653Y-81064828D01*
X90404653Y-81064828D02*
X90347510Y-81217209D01*
X90347510Y-81217209D02*
X90290368Y-81293400D01*
X90290368Y-81293400D02*
X90176082Y-81369590D01*
X90176082Y-81369590D02*
X89947510Y-81369590D01*
X89947510Y-81369590D02*
X89833225Y-81293400D01*
X89833225Y-81293400D02*
X89776082Y-81217209D01*
X89776082Y-81217209D02*
X89718939Y-81064828D01*
X89718939Y-81064828D02*
X89718939Y-79769590D01*
X89204653Y-81293400D02*
X89033225Y-81369590D01*
X89033225Y-81369590D02*
X88747510Y-81369590D01*
X88747510Y-81369590D02*
X88633225Y-81293400D01*
X88633225Y-81293400D02*
X88576082Y-81217209D01*
X88576082Y-81217209D02*
X88518939Y-81064828D01*
X88518939Y-81064828D02*
X88518939Y-80912447D01*
X88518939Y-80912447D02*
X88576082Y-80760066D01*
X88576082Y-80760066D02*
X88633225Y-80683876D01*
X88633225Y-80683876D02*
X88747510Y-80607685D01*
X88747510Y-80607685D02*
X88976082Y-80531495D01*
X88976082Y-80531495D02*
X89090367Y-80455304D01*
X89090367Y-80455304D02*
X89147510Y-80379114D01*
X89147510Y-80379114D02*
X89204653Y-80226733D01*
X89204653Y-80226733D02*
X89204653Y-80074352D01*
X89204653Y-80074352D02*
X89147510Y-79921971D01*
X89147510Y-79921971D02*
X89090367Y-79845780D01*
X89090367Y-79845780D02*
X88976082Y-79769590D01*
X88976082Y-79769590D02*
X88690367Y-79769590D01*
X88690367Y-79769590D02*
X88518939Y-79845780D01*
X87604653Y-80531495D02*
X87433225Y-80607685D01*
X87433225Y-80607685D02*
X87376082Y-80683876D01*
X87376082Y-80683876D02*
X87318939Y-80836257D01*
X87318939Y-80836257D02*
X87318939Y-81064828D01*
X87318939Y-81064828D02*
X87376082Y-81217209D01*
X87376082Y-81217209D02*
X87433225Y-81293400D01*
X87433225Y-81293400D02*
X87547510Y-81369590D01*
X87547510Y-81369590D02*
X88004653Y-81369590D01*
X88004653Y-81369590D02*
X88004653Y-79769590D01*
X88004653Y-79769590D02*
X87604653Y-79769590D01*
X87604653Y-79769590D02*
X87490368Y-79845780D01*
X87490368Y-79845780D02*
X87433225Y-79921971D01*
X87433225Y-79921971D02*
X87376082Y-80074352D01*
X87376082Y-80074352D02*
X87376082Y-80226733D01*
X87376082Y-80226733D02*
X87433225Y-80379114D01*
X87433225Y-80379114D02*
X87490368Y-80455304D01*
X87490368Y-80455304D02*
X87604653Y-80531495D01*
X87604653Y-80531495D02*
X88004653Y-80531495D01*
X86804653Y-81369590D02*
X86804653Y-79769590D01*
X86804653Y-79769590D02*
X86347510Y-79769590D01*
X86347510Y-79769590D02*
X86233225Y-79845780D01*
X86233225Y-79845780D02*
X86176082Y-79921971D01*
X86176082Y-79921971D02*
X86118939Y-80074352D01*
X86118939Y-80074352D02*
X86118939Y-80302923D01*
X86118939Y-80302923D02*
X86176082Y-80455304D01*
X86176082Y-80455304D02*
X86233225Y-80531495D01*
X86233225Y-80531495D02*
X86347510Y-80607685D01*
X86347510Y-80607685D02*
X86804653Y-80607685D01*
X85718939Y-80302923D02*
X85490368Y-81369590D01*
X85490368Y-81369590D02*
X85261796Y-80607685D01*
X85261796Y-80607685D02*
X85033225Y-81369590D01*
X85033225Y-81369590D02*
X84804653Y-80302923D01*
X84347510Y-81369590D02*
X84347510Y-80302923D01*
X84347510Y-80607685D02*
X84290367Y-80455304D01*
X84290367Y-80455304D02*
X84233225Y-80379114D01*
X84233225Y-80379114D02*
X84118939Y-80302923D01*
X84118939Y-80302923D02*
X84004653Y-80302923D01*
X135692774Y-56960400D02*
X136721346Y-59017542D01*
X134607060Y-58636590D02*
X135007060Y-57874685D01*
X135292774Y-58636590D02*
X135292774Y-57036590D01*
X135292774Y-57036590D02*
X134835631Y-57036590D01*
X134835631Y-57036590D02*
X134721346Y-57112780D01*
X134721346Y-57112780D02*
X134664203Y-57188971D01*
X134664203Y-57188971D02*
X134607060Y-57341352D01*
X134607060Y-57341352D02*
X134607060Y-57569923D01*
X134607060Y-57569923D02*
X134664203Y-57722304D01*
X134664203Y-57722304D02*
X134721346Y-57798495D01*
X134721346Y-57798495D02*
X134835631Y-57874685D01*
X134835631Y-57874685D02*
X135292774Y-57874685D01*
X134207060Y-57036590D02*
X133407060Y-58636590D01*
X133407060Y-57036590D02*
X134207060Y-58636590D01*
X132949917Y-57798495D02*
X132549917Y-57798495D01*
X132378489Y-58636590D02*
X132949917Y-58636590D01*
X132949917Y-58636590D02*
X132949917Y-57036590D01*
X132949917Y-57036590D02*
X132378489Y-57036590D01*
X131864203Y-58636590D02*
X131864203Y-57036590D01*
X131864203Y-57036590D02*
X131178489Y-58636590D01*
X131178489Y-58636590D02*
X131178489Y-57036590D01*
X130607060Y-57798495D02*
X129692775Y-57798495D01*
X129692775Y-58255638D02*
X130607060Y-58255638D01*
X128892775Y-57036590D02*
X128778489Y-57036590D01*
X128778489Y-57036590D02*
X128664203Y-57112780D01*
X128664203Y-57112780D02*
X128607061Y-57188971D01*
X128607061Y-57188971D02*
X128549918Y-57341352D01*
X128549918Y-57341352D02*
X128492775Y-57646114D01*
X128492775Y-57646114D02*
X128492775Y-58027066D01*
X128492775Y-58027066D02*
X128549918Y-58331828D01*
X128549918Y-58331828D02*
X128607061Y-58484209D01*
X128607061Y-58484209D02*
X128664203Y-58560400D01*
X128664203Y-58560400D02*
X128778489Y-58636590D01*
X128778489Y-58636590D02*
X128892775Y-58636590D01*
X128892775Y-58636590D02*
X129007061Y-58560400D01*
X129007061Y-58560400D02*
X129064203Y-58484209D01*
X129064203Y-58484209D02*
X129121346Y-58331828D01*
X129121346Y-58331828D02*
X129178489Y-58027066D01*
X129178489Y-58027066D02*
X129178489Y-57646114D01*
X129178489Y-57646114D02*
X129121346Y-57341352D01*
X129121346Y-57341352D02*
X129064203Y-57188971D01*
X129064203Y-57188971D02*
X129007061Y-57112780D01*
X129007061Y-57112780D02*
X128892775Y-57036590D01*
X76790060Y-70498400D02*
X76618632Y-70574590D01*
X76618632Y-70574590D02*
X76332917Y-70574590D01*
X76332917Y-70574590D02*
X76218632Y-70498400D01*
X76218632Y-70498400D02*
X76161489Y-70422209D01*
X76161489Y-70422209D02*
X76104346Y-70269828D01*
X76104346Y-70269828D02*
X76104346Y-70117447D01*
X76104346Y-70117447D02*
X76161489Y-69965066D01*
X76161489Y-69965066D02*
X76218632Y-69888876D01*
X76218632Y-69888876D02*
X76332917Y-69812685D01*
X76332917Y-69812685D02*
X76561489Y-69736495D01*
X76561489Y-69736495D02*
X76675774Y-69660304D01*
X76675774Y-69660304D02*
X76732917Y-69584114D01*
X76732917Y-69584114D02*
X76790060Y-69431733D01*
X76790060Y-69431733D02*
X76790060Y-69279352D01*
X76790060Y-69279352D02*
X76732917Y-69126971D01*
X76732917Y-69126971D02*
X76675774Y-69050780D01*
X76675774Y-69050780D02*
X76561489Y-68974590D01*
X76561489Y-68974590D02*
X76275774Y-68974590D01*
X76275774Y-68974590D02*
X76104346Y-69050780D01*
X75590060Y-68974590D02*
X75590060Y-70269828D01*
X75590060Y-70269828D02*
X75532917Y-70422209D01*
X75532917Y-70422209D02*
X75475775Y-70498400D01*
X75475775Y-70498400D02*
X75361489Y-70574590D01*
X75361489Y-70574590D02*
X75132917Y-70574590D01*
X75132917Y-70574590D02*
X75018632Y-70498400D01*
X75018632Y-70498400D02*
X74961489Y-70422209D01*
X74961489Y-70422209D02*
X74904346Y-70269828D01*
X74904346Y-70269828D02*
X74904346Y-68974590D01*
X74332917Y-70574590D02*
X74332917Y-68974590D01*
X74332917Y-68974590D02*
X73875774Y-68974590D01*
X73875774Y-68974590D02*
X73761489Y-69050780D01*
X73761489Y-69050780D02*
X73704346Y-69126971D01*
X73704346Y-69126971D02*
X73647203Y-69279352D01*
X73647203Y-69279352D02*
X73647203Y-69507923D01*
X73647203Y-69507923D02*
X73704346Y-69660304D01*
X73704346Y-69660304D02*
X73761489Y-69736495D01*
X73761489Y-69736495D02*
X73875774Y-69812685D01*
X73875774Y-69812685D02*
X74332917Y-69812685D01*
X73132917Y-70574590D02*
X73132917Y-68974590D01*
X73132917Y-68974590D02*
X72675774Y-68974590D01*
X72675774Y-68974590D02*
X72561489Y-69050780D01*
X72561489Y-69050780D02*
X72504346Y-69126971D01*
X72504346Y-69126971D02*
X72447203Y-69279352D01*
X72447203Y-69279352D02*
X72447203Y-69507923D01*
X72447203Y-69507923D02*
X72504346Y-69660304D01*
X72504346Y-69660304D02*
X72561489Y-69736495D01*
X72561489Y-69736495D02*
X72675774Y-69812685D01*
X72675774Y-69812685D02*
X73132917Y-69812685D01*
X71361489Y-70574590D02*
X71932917Y-70574590D01*
X71932917Y-70574590D02*
X71932917Y-68974590D01*
X70732917Y-69812685D02*
X70732917Y-70574590D01*
X71132917Y-68974590D02*
X70732917Y-69812685D01*
X70732917Y-69812685D02*
X70332917Y-68974590D01*
X70218632Y-70726971D02*
X69304346Y-70726971D01*
X68447203Y-68974590D02*
X69018631Y-68974590D01*
X69018631Y-68974590D02*
X69075774Y-69736495D01*
X69075774Y-69736495D02*
X69018631Y-69660304D01*
X69018631Y-69660304D02*
X68904346Y-69584114D01*
X68904346Y-69584114D02*
X68618631Y-69584114D01*
X68618631Y-69584114D02*
X68504346Y-69660304D01*
X68504346Y-69660304D02*
X68447203Y-69736495D01*
X68447203Y-69736495D02*
X68390060Y-69888876D01*
X68390060Y-69888876D02*
X68390060Y-70269828D01*
X68390060Y-70269828D02*
X68447203Y-70422209D01*
X68447203Y-70422209D02*
X68504346Y-70498400D01*
X68504346Y-70498400D02*
X68618631Y-70574590D01*
X68618631Y-70574590D02*
X68904346Y-70574590D01*
X68904346Y-70574590D02*
X69018631Y-70498400D01*
X69018631Y-70498400D02*
X69075774Y-70422209D01*
X68047203Y-68974590D02*
X67647203Y-70574590D01*
X67647203Y-70574590D02*
X67247203Y-68974590D01*
X141547346Y-53480590D02*
X140861632Y-53480590D01*
X141204489Y-55080590D02*
X141204489Y-53480590D01*
X140575917Y-53480590D02*
X139775917Y-55080590D01*
X139775917Y-53480590D02*
X140575917Y-55080590D01*
X139318774Y-54242495D02*
X138918774Y-54242495D01*
X138747346Y-55080590D02*
X139318774Y-55080590D01*
X139318774Y-55080590D02*
X139318774Y-53480590D01*
X139318774Y-53480590D02*
X138747346Y-53480590D01*
X138233060Y-55080590D02*
X138233060Y-53480590D01*
X138233060Y-53480590D02*
X137547346Y-55080590D01*
X137547346Y-55080590D02*
X137547346Y-53480590D01*
X136975917Y-54242495D02*
X136061632Y-54242495D01*
X136061632Y-54699638D02*
X136975917Y-54699638D01*
X134633060Y-53404400D02*
X135661632Y-55461542D01*
X133547346Y-55080590D02*
X133947346Y-54318685D01*
X134233060Y-55080590D02*
X134233060Y-53480590D01*
X134233060Y-53480590D02*
X133775917Y-53480590D01*
X133775917Y-53480590D02*
X133661632Y-53556780D01*
X133661632Y-53556780D02*
X133604489Y-53632971D01*
X133604489Y-53632971D02*
X133547346Y-53785352D01*
X133547346Y-53785352D02*
X133547346Y-54013923D01*
X133547346Y-54013923D02*
X133604489Y-54166304D01*
X133604489Y-54166304D02*
X133661632Y-54242495D01*
X133661632Y-54242495D02*
X133775917Y-54318685D01*
X133775917Y-54318685D02*
X134233060Y-54318685D01*
X133147346Y-53480590D02*
X132347346Y-55080590D01*
X132347346Y-53480590D02*
X133147346Y-55080590D01*
X131890203Y-54242495D02*
X131490203Y-54242495D01*
X131318775Y-55080590D02*
X131890203Y-55080590D01*
X131890203Y-55080590D02*
X131890203Y-53480590D01*
X131890203Y-53480590D02*
X131318775Y-53480590D01*
X130804489Y-55080590D02*
X130804489Y-53480590D01*
X130804489Y-53480590D02*
X130118775Y-55080590D01*
X130118775Y-55080590D02*
X130118775Y-53480590D01*
X76256511Y-65875590D02*
X76827939Y-65875590D01*
X76827939Y-65875590D02*
X76827939Y-64275590D01*
X75856510Y-65037495D02*
X75456510Y-65037495D01*
X75285082Y-65875590D02*
X75856510Y-65875590D01*
X75856510Y-65875590D02*
X75856510Y-64275590D01*
X75856510Y-64275590D02*
X75285082Y-64275590D01*
X74770796Y-65875590D02*
X74770796Y-64275590D01*
X74770796Y-64275590D02*
X74485082Y-64275590D01*
X74485082Y-64275590D02*
X74313653Y-64351780D01*
X74313653Y-64351780D02*
X74199368Y-64504161D01*
X74199368Y-64504161D02*
X74142225Y-64656542D01*
X74142225Y-64656542D02*
X74085082Y-64961304D01*
X74085082Y-64961304D02*
X74085082Y-65189876D01*
X74085082Y-65189876D02*
X74142225Y-65494638D01*
X74142225Y-65494638D02*
X74199368Y-65647019D01*
X74199368Y-65647019D02*
X74313653Y-65799400D01*
X74313653Y-65799400D02*
X74485082Y-65875590D01*
X74485082Y-65875590D02*
X74770796Y-65875590D01*
X73570796Y-65875590D02*
X73570796Y-64275590D01*
X73570796Y-64275590D02*
X73113653Y-64275590D01*
X73113653Y-64275590D02*
X72999368Y-64351780D01*
X72999368Y-64351780D02*
X72942225Y-64427971D01*
X72942225Y-64427971D02*
X72885082Y-64580352D01*
X72885082Y-64580352D02*
X72885082Y-64808923D01*
X72885082Y-64808923D02*
X72942225Y-64961304D01*
X72942225Y-64961304D02*
X72999368Y-65037495D01*
X72999368Y-65037495D02*
X73113653Y-65113685D01*
X73113653Y-65113685D02*
X73570796Y-65113685D01*
X72485082Y-64275590D02*
X72199368Y-65875590D01*
X72199368Y-65875590D02*
X71970796Y-64732733D01*
X71970796Y-64732733D02*
X71742225Y-65875590D01*
X71742225Y-65875590D02*
X71456511Y-64275590D01*
X70313653Y-65875590D02*
X70713653Y-65113685D01*
X70999367Y-65875590D02*
X70999367Y-64275590D01*
X70999367Y-64275590D02*
X70542224Y-64275590D01*
X70542224Y-64275590D02*
X70427939Y-64351780D01*
X70427939Y-64351780D02*
X70370796Y-64427971D01*
X70370796Y-64427971D02*
X70313653Y-64580352D01*
X70313653Y-64580352D02*
X70313653Y-64808923D01*
X70313653Y-64808923D02*
X70370796Y-64961304D01*
X70370796Y-64961304D02*
X70427939Y-65037495D01*
X70427939Y-65037495D02*
X70542224Y-65113685D01*
X70542224Y-65113685D02*
X70999367Y-65113685D01*
X70085082Y-66027971D02*
X69170796Y-66027971D01*
X68313653Y-64275590D02*
X68885081Y-64275590D01*
X68885081Y-64275590D02*
X68942224Y-65037495D01*
X68942224Y-65037495D02*
X68885081Y-64961304D01*
X68885081Y-64961304D02*
X68770796Y-64885114D01*
X68770796Y-64885114D02*
X68485081Y-64885114D01*
X68485081Y-64885114D02*
X68370796Y-64961304D01*
X68370796Y-64961304D02*
X68313653Y-65037495D01*
X68313653Y-65037495D02*
X68256510Y-65189876D01*
X68256510Y-65189876D02*
X68256510Y-65570828D01*
X68256510Y-65570828D02*
X68313653Y-65723209D01*
X68313653Y-65723209D02*
X68370796Y-65799400D01*
X68370796Y-65799400D02*
X68485081Y-65875590D01*
X68485081Y-65875590D02*
X68770796Y-65875590D01*
X68770796Y-65875590D02*
X68885081Y-65799400D01*
X68885081Y-65799400D02*
X68942224Y-65723209D01*
X67913653Y-64275590D02*
X67513653Y-65875590D01*
X67513653Y-65875590D02*
X67113653Y-64275590D01*
X99147796Y-76721495D02*
X98976368Y-76797685D01*
X98976368Y-76797685D02*
X98919225Y-76873876D01*
X98919225Y-76873876D02*
X98862082Y-77026257D01*
X98862082Y-77026257D02*
X98862082Y-77254828D01*
X98862082Y-77254828D02*
X98919225Y-77407209D01*
X98919225Y-77407209D02*
X98976368Y-77483400D01*
X98976368Y-77483400D02*
X99090653Y-77559590D01*
X99090653Y-77559590D02*
X99547796Y-77559590D01*
X99547796Y-77559590D02*
X99547796Y-75959590D01*
X99547796Y-75959590D02*
X99147796Y-75959590D01*
X99147796Y-75959590D02*
X99033511Y-76035780D01*
X99033511Y-76035780D02*
X98976368Y-76111971D01*
X98976368Y-76111971D02*
X98919225Y-76264352D01*
X98919225Y-76264352D02*
X98919225Y-76416733D01*
X98919225Y-76416733D02*
X98976368Y-76569114D01*
X98976368Y-76569114D02*
X99033511Y-76645304D01*
X99033511Y-76645304D02*
X99147796Y-76721495D01*
X99147796Y-76721495D02*
X99547796Y-76721495D01*
X98347796Y-77559590D02*
X98347796Y-76492923D01*
X98347796Y-76797685D02*
X98290653Y-76645304D01*
X98290653Y-76645304D02*
X98233511Y-76569114D01*
X98233511Y-76569114D02*
X98119225Y-76492923D01*
X98119225Y-76492923D02*
X98004939Y-76492923D01*
X97090654Y-77559590D02*
X97090654Y-75959590D01*
X97090654Y-77483400D02*
X97204939Y-77559590D01*
X97204939Y-77559590D02*
X97433511Y-77559590D01*
X97433511Y-77559590D02*
X97547796Y-77483400D01*
X97547796Y-77483400D02*
X97604939Y-77407209D01*
X97604939Y-77407209D02*
X97662082Y-77254828D01*
X97662082Y-77254828D02*
X97662082Y-76797685D01*
X97662082Y-76797685D02*
X97604939Y-76645304D01*
X97604939Y-76645304D02*
X97547796Y-76569114D01*
X97547796Y-76569114D02*
X97433511Y-76492923D01*
X97433511Y-76492923D02*
X97204939Y-76492923D01*
X97204939Y-76492923D02*
X97090654Y-76569114D01*
X95947797Y-77559590D02*
X96519225Y-77559590D01*
X96519225Y-77559590D02*
X96519225Y-75959590D01*
X95547796Y-76721495D02*
X95147796Y-76721495D01*
X94976368Y-77559590D02*
X95547796Y-77559590D01*
X95547796Y-77559590D02*
X95547796Y-75959590D01*
X95547796Y-75959590D02*
X94976368Y-75959590D01*
X94462082Y-77559590D02*
X94462082Y-75959590D01*
X94462082Y-75959590D02*
X94176368Y-75959590D01*
X94176368Y-75959590D02*
X94004939Y-76035780D01*
X94004939Y-76035780D02*
X93890654Y-76188161D01*
X93890654Y-76188161D02*
X93833511Y-76340542D01*
X93833511Y-76340542D02*
X93776368Y-76645304D01*
X93776368Y-76645304D02*
X93776368Y-76873876D01*
X93776368Y-76873876D02*
X93833511Y-77178638D01*
X93833511Y-77178638D02*
X93890654Y-77331019D01*
X93890654Y-77331019D02*
X94004939Y-77483400D01*
X94004939Y-77483400D02*
X94176368Y-77559590D01*
X94176368Y-77559590D02*
X94462082Y-77559590D01*
X91776368Y-77559590D02*
X92347796Y-77559590D01*
X92347796Y-77559590D02*
X92347796Y-75959590D01*
X91376367Y-76721495D02*
X90976367Y-76721495D01*
X90804939Y-77559590D02*
X91376367Y-77559590D01*
X91376367Y-77559590D02*
X91376367Y-75959590D01*
X91376367Y-75959590D02*
X90804939Y-75959590D01*
X90290653Y-77559590D02*
X90290653Y-75959590D01*
X90290653Y-75959590D02*
X90004939Y-75959590D01*
X90004939Y-75959590D02*
X89833510Y-76035780D01*
X89833510Y-76035780D02*
X89719225Y-76188161D01*
X89719225Y-76188161D02*
X89662082Y-76340542D01*
X89662082Y-76340542D02*
X89604939Y-76645304D01*
X89604939Y-76645304D02*
X89604939Y-76873876D01*
X89604939Y-76873876D02*
X89662082Y-77178638D01*
X89662082Y-77178638D02*
X89719225Y-77331019D01*
X89719225Y-77331019D02*
X89833510Y-77483400D01*
X89833510Y-77483400D02*
X90004939Y-77559590D01*
X90004939Y-77559590D02*
X90290653Y-77559590D01*
X89090653Y-77559590D02*
X89090653Y-75959590D01*
X89090653Y-75959590D02*
X88633510Y-75959590D01*
X88633510Y-75959590D02*
X88519225Y-76035780D01*
X88519225Y-76035780D02*
X88462082Y-76111971D01*
X88462082Y-76111971D02*
X88404939Y-76264352D01*
X88404939Y-76264352D02*
X88404939Y-76492923D01*
X88404939Y-76492923D02*
X88462082Y-76645304D01*
X88462082Y-76645304D02*
X88519225Y-76721495D01*
X88519225Y-76721495D02*
X88633510Y-76797685D01*
X88633510Y-76797685D02*
X89090653Y-76797685D01*
X88004939Y-76492923D02*
X87776368Y-77559590D01*
X87776368Y-77559590D02*
X87547796Y-76797685D01*
X87547796Y-76797685D02*
X87319225Y-77559590D01*
X87319225Y-77559590D02*
X87090653Y-76492923D01*
X86633510Y-77559590D02*
X86633510Y-76492923D01*
X86633510Y-76797685D02*
X86576367Y-76645304D01*
X86576367Y-76645304D02*
X86519225Y-76569114D01*
X86519225Y-76569114D02*
X86404939Y-76492923D01*
X86404939Y-76492923D02*
X86290653Y-76492923D01*
X83513654Y-57544400D02*
X83342226Y-57620590D01*
X83342226Y-57620590D02*
X83056511Y-57620590D01*
X83056511Y-57620590D02*
X82942226Y-57544400D01*
X82942226Y-57544400D02*
X82885083Y-57468209D01*
X82885083Y-57468209D02*
X82827940Y-57315828D01*
X82827940Y-57315828D02*
X82827940Y-57163447D01*
X82827940Y-57163447D02*
X82885083Y-57011066D01*
X82885083Y-57011066D02*
X82942226Y-56934876D01*
X82942226Y-56934876D02*
X83056511Y-56858685D01*
X83056511Y-56858685D02*
X83285083Y-56782495D01*
X83285083Y-56782495D02*
X83399368Y-56706304D01*
X83399368Y-56706304D02*
X83456511Y-56630114D01*
X83456511Y-56630114D02*
X83513654Y-56477733D01*
X83513654Y-56477733D02*
X83513654Y-56325352D01*
X83513654Y-56325352D02*
X83456511Y-56172971D01*
X83456511Y-56172971D02*
X83399368Y-56096780D01*
X83399368Y-56096780D02*
X83285083Y-56020590D01*
X83285083Y-56020590D02*
X82999368Y-56020590D01*
X82999368Y-56020590D02*
X82827940Y-56096780D01*
X82313654Y-56020590D02*
X82313654Y-57315828D01*
X82313654Y-57315828D02*
X82256511Y-57468209D01*
X82256511Y-57468209D02*
X82199369Y-57544400D01*
X82199369Y-57544400D02*
X82085083Y-57620590D01*
X82085083Y-57620590D02*
X81856511Y-57620590D01*
X81856511Y-57620590D02*
X81742226Y-57544400D01*
X81742226Y-57544400D02*
X81685083Y-57468209D01*
X81685083Y-57468209D02*
X81627940Y-57315828D01*
X81627940Y-57315828D02*
X81627940Y-56020590D01*
X81056511Y-57620590D02*
X81056511Y-56020590D01*
X81056511Y-56020590D02*
X80599368Y-56020590D01*
X80599368Y-56020590D02*
X80485083Y-56096780D01*
X80485083Y-56096780D02*
X80427940Y-56172971D01*
X80427940Y-56172971D02*
X80370797Y-56325352D01*
X80370797Y-56325352D02*
X80370797Y-56553923D01*
X80370797Y-56553923D02*
X80427940Y-56706304D01*
X80427940Y-56706304D02*
X80485083Y-56782495D01*
X80485083Y-56782495D02*
X80599368Y-56858685D01*
X80599368Y-56858685D02*
X81056511Y-56858685D01*
X79856511Y-57620590D02*
X79856511Y-56020590D01*
X79856511Y-56020590D02*
X79399368Y-56020590D01*
X79399368Y-56020590D02*
X79285083Y-56096780D01*
X79285083Y-56096780D02*
X79227940Y-56172971D01*
X79227940Y-56172971D02*
X79170797Y-56325352D01*
X79170797Y-56325352D02*
X79170797Y-56553923D01*
X79170797Y-56553923D02*
X79227940Y-56706304D01*
X79227940Y-56706304D02*
X79285083Y-56782495D01*
X79285083Y-56782495D02*
X79399368Y-56858685D01*
X79399368Y-56858685D02*
X79856511Y-56858685D01*
X78085083Y-57620590D02*
X78656511Y-57620590D01*
X78656511Y-57620590D02*
X78656511Y-56020590D01*
X77456511Y-56858685D02*
X77456511Y-57620590D01*
X77856511Y-56020590D02*
X77456511Y-56858685D01*
X77456511Y-56858685D02*
X77056511Y-56020590D01*
X76942226Y-57772971D02*
X76027940Y-57772971D01*
X75342225Y-56782495D02*
X75742225Y-56782495D01*
X75742225Y-57620590D02*
X75742225Y-56020590D01*
X75742225Y-56020590D02*
X75170797Y-56020590D01*
X74027940Y-57620590D02*
X74427940Y-56858685D01*
X74713654Y-57620590D02*
X74713654Y-56020590D01*
X74713654Y-56020590D02*
X74256511Y-56020590D01*
X74256511Y-56020590D02*
X74142226Y-56096780D01*
X74142226Y-56096780D02*
X74085083Y-56172971D01*
X74085083Y-56172971D02*
X74027940Y-56325352D01*
X74027940Y-56325352D02*
X74027940Y-56553923D01*
X74027940Y-56553923D02*
X74085083Y-56706304D01*
X74085083Y-56706304D02*
X74142226Y-56782495D01*
X74142226Y-56782495D02*
X74256511Y-56858685D01*
X74256511Y-56858685D02*
X74713654Y-56858685D01*
X73285083Y-56020590D02*
X73056511Y-56020590D01*
X73056511Y-56020590D02*
X72942226Y-56096780D01*
X72942226Y-56096780D02*
X72827940Y-56249161D01*
X72827940Y-56249161D02*
X72770797Y-56553923D01*
X72770797Y-56553923D02*
X72770797Y-57087257D01*
X72770797Y-57087257D02*
X72827940Y-57392019D01*
X72827940Y-57392019D02*
X72942226Y-57544400D01*
X72942226Y-57544400D02*
X73056511Y-57620590D01*
X73056511Y-57620590D02*
X73285083Y-57620590D01*
X73285083Y-57620590D02*
X73399369Y-57544400D01*
X73399369Y-57544400D02*
X73513654Y-57392019D01*
X73513654Y-57392019D02*
X73570797Y-57087257D01*
X73570797Y-57087257D02*
X73570797Y-56553923D01*
X73570797Y-56553923D02*
X73513654Y-56249161D01*
X73513654Y-56249161D02*
X73399369Y-56096780D01*
X73399369Y-56096780D02*
X73285083Y-56020590D01*
X72256511Y-57620590D02*
X72256511Y-56020590D01*
X72256511Y-56020590D02*
X71856511Y-57163447D01*
X71856511Y-57163447D02*
X71456511Y-56020590D01*
X71456511Y-56020590D02*
X71456511Y-57620590D01*
X71170797Y-57772971D02*
X70256511Y-57772971D01*
X69399368Y-57620590D02*
X69970796Y-57620590D01*
X69970796Y-57620590D02*
X69970796Y-56020590D01*
X68999367Y-56782495D02*
X68599367Y-56782495D01*
X68427939Y-57620590D02*
X68999367Y-57620590D01*
X68999367Y-57620590D02*
X68999367Y-56020590D01*
X68999367Y-56020590D02*
X68427939Y-56020590D01*
X67913653Y-57620590D02*
X67913653Y-56020590D01*
X67913653Y-56020590D02*
X67627939Y-56020590D01*
X67627939Y-56020590D02*
X67456510Y-56096780D01*
X67456510Y-56096780D02*
X67342225Y-56249161D01*
X67342225Y-56249161D02*
X67285082Y-56401542D01*
X67285082Y-56401542D02*
X67227939Y-56706304D01*
X67227939Y-56706304D02*
X67227939Y-56934876D01*
X67227939Y-56934876D02*
X67285082Y-57239638D01*
X67285082Y-57239638D02*
X67342225Y-57392019D01*
X67342225Y-57392019D02*
X67456510Y-57544400D01*
X67456510Y-57544400D02*
X67627939Y-57620590D01*
X67627939Y-57620590D02*
X67913653Y-57620590D01*
M02*
